<svg xmlns="http://www.w3.org/2000/svg" width="34.166" height="65.931" viewBox="0 0 34.166 65.931"><defs><style>.a{fill:#4b4b4b}</style></defs><path class="a" d="M415.038,1184.423a16.142,16.142,0,0,0-5.964-3.131l.414.11h0a84.589,84.589,0,0,0-14.357-2.675l.159.022a9.027,9.027,0,0,1-2.216-.681c-1.836-.779-2.87-1.757-3.069-2.875q-.064-6.723,7.683-10.025a8.118,8.118,0,0,1,6.018.07c.054.007.151.075.2.082a6.346,6.346,0,0,1,3.879,3.435,2.725,2.725,0,0,0,3.59,1.248,2.653,2.653,0,0,0,1.239-3.537,11.458,11.458,0,0,0-7.048-6.183l.2.08v0a12.888,12.888,0,0,0-7.941-.726c-.168-.9-.38-2.013-.632-3.358-.093-.5-.186-.992-.233-1.428a7.152,7.152,0,0,1-.106-1.573c.014-.107.082-.2.11-.415a2.509,2.509,0,0,0-1.821-3.153,2.677,2.677,0,0,0-3.267,1.861,13.857,13.857,0,0,0-.248,1.417c-.015.1.016.27,0,.376l.007-.052c0,.752.06,1.512.124,2.22a12.02,12.02,0,0,0,.242,1.752c.382,1.978.649,3.437.819,4.409a14.657,14.657,0,0,0-8.067,13.884,2.237,2.237,0,0,1,.017.271c.429,3.123,2.519,5.505,6.224,7.091h0a15.892,15.892,0,0,0,3.242,1.038l.159.022a84.4,84.4,0,0,1,13.005,2.328c.157.021.256.089.414.111a10.256,10.256,0,0,1,3.9,2.149c2.056,1.608,2.3,4.222.742,7.787a9.978,9.978,0,0,1-7.873,4.181l.053.006a13.744,13.744,0,0,1-10.34-3.734,2.65,2.65,0,1,0-3.5,3.978,19.037,19.037,0,0,0,12.3,5.088c.071.49.256,1.375.549,2.7l.007-.052c.123.662.3,1.707.588,3.144.063.33.245.946.446,1.834h0a2.664,2.664,0,1,0,5.173-1.276c-.215-.782-.36-1.284-.384-1.5-.286-1.437-.508-2.541-.633-3.2l.008-.052c-.226-1.061-.4-1.765-.482-2.16a14.172,14.172,0,0,0,8.682-6.276c.067-.1.142-.249.21-.347,2.784-6.172,2.045-10.948-2.226-14.278Z" transform="translate(-384.745 -1149.622)"/></svg>