<svg xmlns="http://www.w3.org/2000/svg" width="102.664" height="95.138" viewBox="0 0 102.664 95.138"><defs><style>.a{fill:#4b4b4b}</style></defs><path class="a" d="M614.613,71.2,627.638,87.57c1.613,2.029,4.057,7.183,7.179,7.539,2.977.471,7.5-4.548,9.531-6.162,2.318-1.844,3.3-2.391,2.3-5.141-1.548-4.92-6.824-10.66-9.907-14.833-1.929-2.723-4.584-4.87-6.688-7.219-.692-.869-1.584-2.288-2.71-2.812-3.149-1.281-5.761,1.979-8.079,3.823-2.753,2.19-6.257,4.031-5.776,7.907a1.16,1.16,0,0,0,2.285-.4c-.368-2.546,3.425-4.617,4.875-5.77,4.636-3.688,7.637-1.106,10.953,2.171,4.874,4.64,8.009,10.663,11.723,16.226,2.477,3.708-3.951,6.929-6.095,8.4-3.883,2.852-5.892-2.648-7.851-5.111L616.352,69.813a1.111,1.111,0,0,0-1.739,1.383" transform="translate(-613.442 -0.002)"/><path class="a" d="M632.271,64.247c9.55-13.275,21.361-27.874,25.945-43.823a15.165,15.165,0,0,0,.158-4.858,4.921,4.921,0,0,0-.949-2.085c-1.494-3.069,4.094-5.859,6.268-7.587,3.8-3.257,20.151,22.062,22.572,25.1,5.819,7.911,11.9,15.851,17.718,23.762,3.773,5.042-2.517,10.519-7.309,7.469-.866-.494-1.673-1.508-2.773-1.107-9.84,3.1-18.557,7.9-28.829,10.157-8.1,1.712-16.081,1.2-23.639,5.081-1.274.777-.326,2.862.948,2.084,9.818-5.206,22.19-3.928,32.581-7.224a113.711,113.711,0,0,0,15.024-5.8c4.314-2.012,4.943.564,8.845,1.008s8.428-4.574,9.825-7.577c.553-1.387-2.734-4.924-2.964-5.214-4.466-5.912-8.932-11.823-13.252-17.85C684.315,24.978,676.22,13.91,668.1,3.1c-2.967-4.028-8.714,3.619-10.338,5.147-.9.952-2.927,2.566-3.25,4.242-.089.781.6,1.65.688,2.055,2.128,4.459-.313,8.53-2.058,12.284-6.08,12.88-14.672,24.683-22.83,36.14-.668,1.242,1.15,2.635,1.963,1.278" transform="translate(-613.442 -0.002)"/><path class="a" d="M663.186,21.912c4.311,9.584,13,15.449,20.033,23.1,1.067,1.044,2.806-.34,1.884-1.5-6.659-7.479-15.377-13.084-19.717-22.407a1.172,1.172,0,1,0-2.2.8" transform="translate(-613.442 -0.002)"/><path class="a" d="M653.467,74.832a18.144,18.144,0,0,0,9.02,11.042c4.13,1.92,7.891,1.295,12.232.208,8.131-1.973,12.405-10.578,8.378-18.021-.778-1.274-2.862-.326-2.085.949a10.391,10.391,0,0,1-.145,10.525c-1.831,3.349-6.026,4.321-9.528,4.976-7.551,1.512-13.581-3.392-15.932-10.512-.227-1.476-2.428-.672-1.94.833" transform="translate(-613.442 -0.002)"/><path class="a" d="M696.213,32.341c-.382,1.426,15.794,1.827,16.23,2.188.755.624,3.159,1.306,3.656-.134.431-2.885-19.28-4.314-19.886-2.054m9.469-18.647a53.462,53.462,0,0,1-7.459,4.375,56.863,56.863,0,0,0-6.408,3.689c-1.347.794.374,3.177,1.69,2.354a39.619,39.619,0,0,0,6.457-3.547c2.885-2.2,5.661-1.971,7.927-4.542,1-.878.341-3.211-2.207-2.329M686.04,16.322c-.6,1.2-2.121.081-1.9-1.328A65.34,65.34,0,0,1,686.1,8.039c.845-2.809,2.885-8.691,4.274-7.977,1.49.764-.075,4.15-1.178,6.645-2.092,4.729-1.386,4.9-3.158,9.615" transform="translate(-613.442 -0.002)"/></svg>