<svg xmlns="http://www.w3.org/2000/svg" width="85.738" height="76.606" viewBox="0 0 85.738 76.606"><defs><style>.a{fill:#fff;}</style></defs><path class="a" d="M170.227,65.328c-3.188,3.895-6.765,7.288-12.524,7.218,4.175-1.77,8.087-3.675,11.4-6.876,2.8-2.713,3.609-5.971,4.4-9.373.624-2.669,1.08-5.3-.885-7.664-2.786-3.357-6.551-2.6-10.233-2.21a16.585,16.585,0,0,0-2.5.658l-.229-.7c1.75-.546,3.48-1.432,5.253-1.576,5.558-.452,8.93.476,9.63,5.024a19.2,19.2,0,0,1-4.31,15.5ZM152.535,70.82a31.625,31.625,0,0,1-4.407-.447c.84-1.811,1.519-3.33,2.245-4.827,1.988-4.1,4.1-8.144,5.955-12.292,1-2.233,2.309-3.874,4.84-4.3,1.113-.186,2.234-.311,3.354-.445,7.033-.846,7.171,3.464,6.428,8.239-.655,4.2-3.074,7.1-6.241,9.49A21.638,21.638,0,0,1,152.535,70.82ZM152.488,54.3c-2.286,4.8-4.363,9.712-6.982,14.34-2.237,3.953-3.263,8.437-6.177,12.088h0a6.844,6.844,0,0,1-5.84,2.983c-6.292.166-11.9-1.86-17.593-3.738-3.353-1.107-6.629-2.422-9.938-3.647-2.233-.826-4.707-1.083-5.926-3.715-.453-.978-2.258-1.326-3.415-2.382a33.5,33.5,0,0,0,3.863.692,9.532,9.532,0,0,0,2.441-.467,6.407,6.407,0,0,0-1.607-1.648c-2.529-1.148-5.137-2.139-7.673-3.172.043-.013.59-.385.951-.263,1.125.383,2.148,1.044,3.279,1.406.5.161,1.161-.138,1.749-.228-.243-.519-.341-1.273-.757-1.515-1.482-.86-3.072-1.546-4.652-2.313,2.433-1.84,4.341,2.155,7.494.3l-6.873-3.529c.362-1.2.689-1.239,2.207-.257a14.374,14.374,0,0,0,2.5,1.03l.575-.972-4.72-3.66.19-.469,4.931,1.313q.242-.417.484-.833c-1.127-.759-2.307-1.456-3.363-2.3a17.64,17.64,0,0,1-1.9-2.051l.764-.778,3.723,2.5c1.1-.682,1.446-1.482.058-2.42A16.771,16.771,0,0,1,97.815,48.8a7.875,7.875,0,0,1-1.1-1.928q.358-.264.716-.529a30.507,30.507,0,0,0,2.759,1.674,5.668,5.668,0,0,0,1.727.226c-.133-.609-.061-1.425-.44-1.785-.842-.8-1.944-1.326-2.868-2.05a6.372,6.372,0,0,1-1-1.3l.543-.667c1.391.641,2.764,1.321,4.183,1.9a9.387,9.387,0,0,0,1.874.359c-.251-.649-.31-1.536-.79-1.9-1.314-1-2.817-1.759-4.217-2.654a5.274,5.274,0,0,1-.873-.906l.3-.585c1.333.489,2.649,1.03,4.006,1.446h0a15.48,15.48,0,0,0,2.326.354,7.685,7.685,0,0,0-1.389-1.9c-1.005-.74-2.257-1.162-3.273-1.891a7.412,7.412,0,0,1-1.351-1.787l.583-.646,6.617,3.232.427-.563c-1.145-2.927-5.019-3.065-6.471-5.857l3.731,1.608c1.108-3.082-4.476-2.927-2.7-6.147,2.76.452,4.614,2.991,8.017,3.042-1.938-3.624-6.617-3.318-8.177-7.362,2.971,1.227,5.316,2.238,7.706,3.143.4.15.987-.158,1.488-.254-.315-.535-.492-1.318-.967-1.564-2.369-1.221-4.817-2.3-7.237-3.429l.276-.67,9.378,2.947q.162-.349.326-.7c-1.926-3.5-7.1-2.317-9.428-5.234l.411-.781,10.849,4.972.431-.832c-2.782-3.228-7.549-3.644-10.672-6.53,4.562-1.354,56.337,13.367,59.9,16.891-1.383,3.263-2.6,6.326-3.972,9.323C157.2,44.436,154.838,49.365,152.488,54.3Zm24.586-3.532c-.192-5.474-3.084-7.65-7.147-8.095-2.627-.287-5.359.155-8.208.278a4.271,4.271,0,0,1,.232-.831c1.674-3.827,3.495-7.6,4.953-11.5.359-.962-.08-2.991-.8-3.358-1.922-.981-4.2-1.3-6.326-1.927-8.054-2.388-30.184-8.923-32.684-9.493s-5-1.215-7.489-1.872c-3.337-.882-6.662-1.805-9.99-2.717-2.356-.644-4.717-1.3-7.189-1.98a5.7,5.7,0,0,0-1.88,1.46,28.827,28.827,0,0,1-.531,3.382,119.38,119.38,0,0,0-3.1,16.625C96.1,38.98,94.679,47.2,93.131,55.373c-.83,4.381-1.926,8.623-1.76,13.164a5.529,5.529,0,0,0,3.578,5.444C102.9,77.212,111,80.107,119.017,83.2h0a40.308,40.308,0,0,0,13.425,2.643c2.994.09,5.788.11,8.431-2.343,2.205-2.046,2.434-4.833,4.207-6.885.485-.56,1.145-1.363,1.733-1.388,3.264-.135,6.531.013,9.8-.08,6.838-.2,12.032-3.26,15.868-8.925h0a25.056,25.056,0,0,0,4.594-15.458Z" transform="translate(-91.354 -9.268)"/></svg>