<svg xmlns="http://www.w3.org/2000/svg" width="83.73" height="82.529" viewBox="0 0 83.73 82.529"><defs><style>.a {
  fill: #fff;
}

</style></defs><path class="a" d="M127.249,626.563c10.1,5.035,11.683,18.585,22.288,23.07.189-.849.864-1.146,1.555-1.517-6.78-11.434-16.39-20.013-25.4-29.238A78.356,78.356,0,0,0,127.249,626.563Zm1.514,22.328c-.19,3.309,2.262,3.909,3.851,5.372-.618-2.434-2.222-3.874-3.851-5.372m0-3.867c-.321,4.451,4.673,7.645,6.188,7.7-2.52-2.139-3.177-6.078-6.188-7.7m0-5.38c1.126,6.09,5.446,13.081,10,13.081-3.694-3.974-6.369-9-10-13.081m-.742-4.617a40.316,40.316,0,0,0,13.822,17.7c-4.738-5.775-8.77-12.225-13.822-17.7m-.772-7.683c2.911,10.951,8.819,18.855,17.68,23.868-4.254-6.573-10.162-18.059-17.68-23.868m-39.26,4.574c7.354,13.23,17.178,23.933,39.26,22.346-2.3-11.625.165-25.255-3.86-36.126C112.1,623.189,96.824,624.4,87.989,631.918Zm74.652-1.488c-2.033-5.776-9.214-7.972-13.854-11.551-4.805-3.668-8.523-9.487-13.838-10,7.772,8.638,18.51,14.306,27.692,21.547m-35.392-13.856c7.4,11.322,18.142,19.3,26.146,30.007-.363-2.42,2.074-2.033,2.328-3.8-9.889-8.351-18.207-18.3-28.474-26.206m24.605,16.915c-8.218-6.7-16.319-13.557-23.833-19.975v2.29c9.824,7.847,19.712,19.759,29.224,25.371C159.286,637.233,153.955,635.2,151.854,633.489Zm2.313-3.059c-7.99-6.278-15.869-13.245-23.843-18.462,5.778,9.387,19.316,17.58,29.222,25.373,2.042-3.915-3.355-5.357-5.379-6.911m-21.553-20.024c1.8,4.868,8.168,7.773,13.063,11.565,5.017,3.874,10.3,8.567,15.408,11.517-7.412-9.78-18.33-16-28.472-23.082Zm30.028-10.778c-1.868-.987-4.871-4.788-6.919-3.068,2.156.7,4.8,4.869,6.919,3.068m-20.016,5.405a6.99,6.99,0,0,0-4.608,3.109,163.053,163.053,0,0,0,25.365,18.422c-5.858-7.718-17.7-13.567-22.288-20,3.5,2.523,8.053,5.323,12.3,8.432,3.85,2.9,8.079,8.268,10.77,7.717-6.773-6.252-15.131-11.042-21.539-17.681Zm1.546-1.523c-.041.995-1,1.021-.782,2.3,8.31,4,13.755,10.82,21.555,15.375-5-7.85-13.113-12.546-20.773-17.673Zm11.551,5.373c-3.183-2.387-7.133-7.454-10.045-5.372,7.569,3.243,13.771,11.841,20.042,13.8C164.056,613.851,159.393,611.606,155.723,608.883ZM148,601.957c5.835,3.11,11.9,10.176,17.723,10.784-5.859-2.8-12.721-12.2-17.723-10.784m2.32-1.531c4.838,3.4,9.289,7.131,14.628,9.98-1.629-5.875-10.71-11.421-14.628-9.98m3.078-3.093c1.76,4.418,7.125,5.223,10.769,7.7-1.917-4.244-5.883-6.441-10.769-7.7M87.24,629.654c10.391-6.529,25.7-8.126,35.37-15.358-2.438-10.646-10.7-22.089-16.916-31.559C91.528,590.346,83.086,608.332,87.24,629.654Zm38.446-16.14c10.184-7.533,21.619-13.78,32.332-20.781C153.9,584,145.735,579.346,135.691,576.6c-2.288,13.353-9.692,21.58-10,36.916Zm-17.7-33.1c4.771,11.127,11.155,20.675,16.949,30.785-.742-15.361,7.124-22.133,9.229-34.6C124.583,573.975,114.564,577.405,107.981,580.41ZM148,652.724c-32.545,10.565-61.447-2.87-63.858-30.012-1.728-19.728,12.72-45.448,34.636-48.449,24.188-3.365,45.529,12.118,48.474,31.542,2.723,18.126-6.475,39.007-19.252,46.919" transform="translate(-83.999 -573.801)"></path></svg>