<svg xmlns="http://www.w3.org/2000/svg" width="111.97" height="104.576" viewBox="0 0 111.97 104.576"><defs><style>.a {
  fill: #4b4b4b;
}

</style></defs><path class="a" d="M936.359,1026.677l-5.4-9.929-3.122-1.34-8.15,2.186-5.28-8.441,8.552-3.387,12.187,6.814,6.635,13.064Zm-5.414,16.484-1.93-7.812,7.174-1.047Zm-43.014,24.011-.258-.385-2.148-1.217-18.487-.893,16.779-22.909.515-1.335,1.648-15.662-1.19-2.561-1.233-.835,25.495-10.1.8.953,6.251,10,3.039,1.2,8.022-2.151,4.434,8.151-6.378.932-2.267,3.373L926.9,1049.7ZM854.6,1027.609l3.349-.207.9-1.136,32.839-35.61,13.64,16.193-28.614,11.334-.529,4.823,4.169,2.827-1.4,13.29L864.685,1058.6Zm-8.195,4.2-.132-.159,3.057-2.5,7.373,22.654Zm-3.922-23.137L883.995,977.5l.2.023,7.7,7.168-2.131-.047-34.141,37.022Zm77.74-7.727-9.515,3.771L900.925,993.1l4.268,3.972,2.4.685,12.071-2.36Zm-10.556-21.755,10.3,10.553L907.906,992.1l-16.1-14.984Zm38.664,47.222-8.667-17.066-1.109-1.153-12.807-7.16-.7-6.859,2.052-2.493v-1.371l-.78-1.919-13.405-13.733-1.649-.809-31.25-3.628-.433,3.729L836.643,1006.2l-.282,4.146,12.353,12.217-8.407,6.887.049,4.284,1.445,1.13,17.282,33.555.418.27,29.036,6.116,42.611-6.068-21.823-5.133,21.39-9.589.137.081.116-.195.276-.124.942-1.933,11.653-19.683-.781-1.167,3.339-.637Z" transform="translate(-836.361 -970.224)"></path></svg>