<svg xmlns="http://www.w3.org/2000/svg" width="198.135" height="74.646"><path d="M606.207 55.876a3.4 3.4 0 0 0 2.925 0l8-2.925c1.49-.552 3.091-.993 4.691-1.6a8.563 8.563 0 0 1 2.925-.5c.331.111.552.386.5.993-.828.387-1.821.607-2.7.993-1.049.331-1.932.828-2.926 1.159-1.656.773-3.257 1.435-4.857 2.153-1.435.662-2.926 1.1-4.361 1.656a6.106 6.106 0 0 1-2.98.166 7.926 7.926 0 0 1-3.532-3.588 7.008 7.008 0 0 1 .275-4.415c-1.821 1.325-3.532 2.594-6.844 5.353a13.906 13.906 0 0 1-3.588 2.7c-2.373.718-4.085-.662-3.808-3.145a43.326 43.326 0 0 1 3.808-13.136 77.771 77.771 0 0 1 7.176-12.418 2.656 2.656 0 0 0 .828-1.712c-2.208-.166-4.25.662-6.348 1.1-4.194.938-8.721 1.766-12.418 3.919-.5.166-1.049.5-1.325-.166-.331-.717.275-.827.717-1.214A47.934 47.934 0 0 1 587.5 29a122.809 122.809 0 0 1 14.847-3.312 4.322 4.322 0 0 0 2.7-1.545 54.194 54.194 0 0 1 14.46-12.253 28.359 28.359 0 0 1 12.86-4.361 12.148 12.148 0 0 1 7.838 1.49 8.193 8.193 0 0 1 4.139 4.03c1.048 2.649.552 4.747-1.711 6.4a19.488 19.488 0 0 1-3.919 2.153 58.814 58.814 0 0 1-14.572 2.87c-5.3.717-10.376 1.38-15.73 1.766a6.035 6.035 0 0 0-4.085 2.484 70.736 70.736 0 0 0-12.418 24.561 7.147 7.147 0 0 0-.552 2.539c0 1.1.331 1.38 1.434.939 1.215-.773 2.153-1.49 3.367-2.429 4.029-3.091 7.285-5.685 10.1-7.782a.476.476 0 0 1 .331-.166 8.707 8.707 0 0 1 1.876-1.048c.828-.387 1.766-.662 2.539-.993a4.011 4.011 0 0 1 2.263 1.269 2.815 2.815 0 0 1 .166 2.208c-2.208 2.815-2.208 2.815-7.727 6.016a1.832 1.832 0 0 0 .501 2.04Zm5.188-8.776c-.331-.441-.773-.275-1.1-.166-1.766.718-2.87 1.932-4.305 4.03 3.31-1.436 4.3-2.209 5.405-3.864Zm-1.932-22.63c5.906-.717 11.977-1.545 18.049-2.373a50.535 50.535 0 0 0 11.812-3.2 8.324 8.324 0 0 0 3.477-2.429c1.214-1.38 1.214-2.428-.166-3.808a10.341 10.341 0 0 0-5.575-2.925 18.441 18.441 0 0 0-9.935.938c-7.341 2.7-13.247 7.4-18.38 13.082-.166.11-.166.275-.331.552a2.849 2.849 0 0 0 1.049.163Zm24.784 30.577c-.717-1.6-.221-2.87-.717-4.084-1.6 1.325-3.146 2.539-4.581 3.808a4.476 4.476 0 0 1-4.36 1.048 2.879 2.879 0 0 1-1.27-1.49 2.665 2.665 0 0 1 0-.662c.662-3.588 3.035-5.8 5.354-7.948a14.382 14.382 0 0 1 1.546-1.27 4.337 4.337 0 0 1 2.76.166c.33.442.828 1.1 1.269 1.6.331 0 .5.111.662 0 .773-.717 1.6-1.38 2.429-2.207a1.747 1.747 0 0 1 1.325.827 2.338 2.338 0 0 1-.055 1.38c-.607 1.38-1.325 2.76-1.932 4.194a13.639 13.639 0 0 0-1.1 3.808.752.752 0 0 0 .938.276 31.88 31.88 0 0 0 3.312-1.711 67.861 67.861 0 0 1 5.85-3.477c.938-.5 1.491-.718 2.429-.111-.166.276-.662.607-.828.828-2.594 1.766-4.857 3.367-7.451 5.022-1.545 1.049-1.987 1.049-4.967.662a4.527 4.527 0 0 1-.614-.659Zm-8-1.214a53.078 53.078 0 0 0 7.064-6.126c.221-.111.221-.386.221-.607a2.369 2.369 0 0 0-1.215-1.214 11.693 11.693 0 0 0-6.623 8.058c.218 0 .439.056.549-.111Zm74.288-30.853a14.03 14.03 0 0 1-3.422 1.932 68.369 68.369 0 0 1-12.971 2.594 942.006 942.006 0 0 1-14.24 1.546 5.675 5.675 0 0 0-3.643 2.042c-4.8 6.844-8.831 13.909-11.094 22.023-.166.717-.331 1.6-.5 2.262 0 1.1.5 1.38 1.38.884 1.048-.331 1.545-1.215 2.263-1.877a54.2 54.2 0 0 1 4.526-4.691 3.85 3.85 0 0 1 1.545-1.048c.332 0 .884 0 .994.331 0 .166-.332.552-.5.717a34.851 34.851 0 0 0-5.513 5.905 8.63 8.63 0 0 1-2.429 1.656c-2.262.772-3.808-.5-3.477-2.539a8.053 8.053 0 0 1 .111-1.6 3.143 3.143 0 0 1-.442.717 42.736 42.736 0 0 1-3.366 3.808 4.394 4.394 0 0 1-1.656 1.546 2.735 2.735 0 0 1-2.815.386c-.828-.552-1.049-1.38-.828-2.815.994-4.636 3.09-9.163 7.617-11.922 1.711-.993 2.76-.662 3.588.884.386-1.048.883-1.877 1.269-2.815a63.82 63.82 0 0 1 6.237-11.039c.331-.552.828-.884.828-1.6-2.042-.166-3.808.552-5.685.828-3.808.939-7.672 1.766-11.095 3.477-.331.387-.883.552-1.214 0-.221-.607.331-.772.662-1.048a21.053 21.053 0 0 1 4.691-1.987 81.556 81.556 0 0 1 13.191-2.98 4.423 4.423 0 0 0 2.429-1.435 51 51 0 0 1 12.805-10.873 28.418 28.418 0 0 1 11.646-3.974 11.84 11.84 0 0 1 7.064 1.38 8.025 8.025 0 0 1 3.643 3.643c1.05 2.259.499 4.136-1.599 5.682Zm-47.247 27.265c-.552-1.269.276-1.931.718-2.815.11-.552.662-1.048.11-1.38-3.974 1.711-8.113 8.334-7.451 11.977a1.359 1.359 0 0 0 .552-.221 40.926 40.926 0 0 0 5.74-6.954.961.961 0 0 0 .331-.607Zm11.757 5.63a3.4 3.4 0 0 0 2.926 0c2.649-.993 5.3-1.932 8-2.925 1.49-.552 3.091-.993 4.692-1.6a8.557 8.557 0 0 1 2.925-.5c.331.111.552.386.5.993-.828.387-1.821.607-2.7.993-1.048.331-1.932.828-2.925 1.159-1.656.773-3.256 1.435-4.857 2.153-1.435.662-2.926 1.1-4.361 1.656a6.106 6.106 0 0 1-2.98.166 7.934 7.934 0 0 1-3.532-3.588c-.717-3.035.386-5.408 2.373-7.837a13.65 13.65 0 0 1 2.208-1.214c.828-.387 1.766-.662 2.539-.993a4.012 4.012 0 0 1 2.263 1.269 2.816 2.816 0 0 1 .166 2.208c-2.208 2.815-2.208 2.815-7.727 6.016a1.832 1.832 0 0 0 .49 2.045Zm5.189-8.776c-.331-.441-.773-.275-1.1-.166-1.766.718-2.871 1.932-4.305 4.03 3.307-1.435 4.301-2.208 5.405-3.863Zm30.3-30.191a8.252 8.252 0 0 0-4.967-2.594 15.655 15.655 0 0 0-8.886.939c-6.568 2.207-11.757 6.568-16.448 11.536-.166 0-.166.221-.166.552a.751.751 0 0 0 .828 0c5.409-.717 10.818-1.214 16.227-2.1a45.753 45.753 0 0 0 10.542-2.76 7.754 7.754 0 0 0 3.091-2.263c1.045-1.212 1.045-2.262-.22-3.31ZM686.351 54.33c.717-1.821 1.159-2.484 2.042-4.305.607-1.27 1.6-2.484 1.932-3.422a.825.825 0 0 0-.056-.717 1.227 1.227 0 0 0-1.048-.386 21.413 21.413 0 0 0-2.7.717c-.939 1.325-2.7 5.519-3.644 7.176a2.236 2.236 0 0 1-.828.055 2.384 2.384 0 0 0-.5-.331c-.276-1.159 2.043-5.078 2.043-5.8 0-.939-1.877-.718-2.043-2.043a6.76 6.76 0 0 1 3.146-3.477 5.014 5.014 0 0 1 2.208-.331 2.152 2.152 0 0 1 1.1.883c0 .552-.221 1.16-.221 1.657.773.607 1.821.165 3.146.607a7.564 7.564 0 0 1 1.1.993 4.169 4.169 0 0 1-.166 2.594c-.993 1.987-2.373 4.194-3.091 6.016-.828 2.208-1.656 5.023-.772 5.74a6.444 6.444 0 0 0 2.539-.717c5.133-2.7 9-5.354 12.805-7.12a28.573 28.573 0 0 1 3.367-1.27c.5-.166 1.821-.828 2.263-.166.055.111-.111.331-.442.5-1.435.773-3.588 1.49-5.353 2.373-3.533 1.932-6.017 4.085-9.714 5.906-.718.5-1.821.939-2.539 1.435-1.711.883-3.146.386-4.636-.773-.166-.166-.386-.552-.5-.662a8.287 8.287 0 0 1 .562-5.132Zm-1.325-10.321c-.332 0-.5.165-.5.938.39-.332.886-.111.5-.938Zm42.224 5.63c-.828.275-1.38.275-3.753 1.1-1.656.607-3.422 1.215-4.581 1.656-.993.5-2.042.884-3.09 1.435a37 37 0 0 0-3.312 1.656c-.22.442-.5.884-.662 1.325a25.008 25.008 0 0 1-4.194 7.838 13.689 13.689 0 0 1-6.072 4.526 6.107 6.107 0 0 1-4.526 0c-.221-.166-.5-.221-.662-.386a1.873 1.873 0 0 1-.607-2.263 10.61 10.61 0 0 1 2.153-3.643 30.6 30.6 0 0 1 8.555-6.513 23.611 23.611 0 0 0 3.532-1.932 2.751 2.751 0 0 0 .442-2.043 3.163 3.163 0 0 0-.938-1.711c-1.545-.828-3.312-.662-3.532-2.1-.276-1.876 1.766-3.367 3.7-4.194a2.609 2.609 0 0 1 1.821-.221 1.568 1.568 0 0 1 1.1.939c-.22 1.877-2.318 2.539-3.257 3.864.221-.166 1.6.552 2.043 1.159.883 1.1.828 1.931 1.269 3.09 1.712-.772 3.478-1.435 5.078-2.1a68.5 68.5 0 0 1 7.948-2.1 1.258 1.258 0 0 1 1.545.618ZM708.98 57.7a.976.976 0 0 0-.883 0c-.828.552-1.6.938-2.374 1.49a29.71 29.71 0 0 0-6.181 5.022 9.372 9.372 0 0 0-1.435 2.373 1.793 1.793 0 0 0 .386 1.987 5.851 5.851 0 0 0 3.7-1.49 21.738 21.738 0 0 0 5.685-6.347 6.185 6.185 0 0 0 1.102-3.035Zm23.734-12.861a2.8 2.8 0 0 1 4.25 3.367 14.749 14.749 0 0 1-1.876 5.244c-.5 1.435-.939 2.815-1.435 4.25-.442.5-.442.993-.442 1.876.442.993 4.747-2.815 5.685-3.312 2.815-2.374 5.685-4.747 6.181-5.685.938-.441 1.38-.441 1.877 0s-.5.939-.5 1.49c-2.318 1.821-6.182 5.189-8.058 6.624-1.876 1.876-4.747 3.312-6.182 2.815a2.664 2.664 0 0 1-1.434-3.312c0-1.932.993-3.312 1.931-4.747.5-1.932 1.877-3.808 2.374-5.74 0-.442.5-.939 0-1.38-.5-.5-.939 0-1.435 0-2.87 1.876-5.685 4.249-6.623 7.561a42.027 42.027 0 0 1-1.49 4.8c-.442.883-.442 1.38-.883 1.876 0 .5-.5.5-.938.5-.5 0-.5-.5-.5-.993 0-.939.5-2.373.5-3.312 2.373-8.555 5.188-17.11 9.493-24.672.442-.938.442-1.435.938-1.931v-.5a1.556 1.556 0 0 0-.938-.441 54.693 54.693 0 0 0-12.364.939 8.182 8.182 0 0 0-3.312.993 1.661 1.661 0 0 1-1.435-.5c-.5-.993.441-.993.938-.993 1.877-.883 3.808-.883 6.182-1.38 3.312 0 7.12-.5 10.431-.5 1.435 0 2.429-.442 2.871-1.435a34.592 34.592 0 0 1 10.431-11.37c6.181-4.8 12.364-7.617 19.925-7.12 2.373.442 4.747.939 6.678 2.871 3.312 2.318 3.808 5.685 1.877 9.438-1.38 2.429-3.312 3.808-5.685 5.244a26.966 26.966 0 0 1-10.432 3.367c-5.74.442-11.425.442-17.11.442-4.25 0-4.25 0-6.623 3.753-1.932 3.863-3.808 7.672-5.244 11.425 0 .441-.442.939 0 1.435.942.004 1.439-.99 2.377-.99Zm7.562-17.055c6.182 0 12.86 0 19.042-.993 3.753-.883 7.562-1.876 10.432-4.194 1.877-1.435 3.808-3.367 4.305-5.74 1.38-3.312 0-5.685-3.808-6.679a15.389 15.389 0 0 0-8.113.552c-9.438 2.318-16.614 8.058-22.3 15.619 0 .442 0 .442-.442.993.442.439.442.439.884.439ZM764.451 49.2c-.166.276-.276.552-.441.552a97.494 97.494 0 0 0-11.7 6.017 15.66 15.66 0 0 1-5.41 2.531 4.666 4.666 0 0 1-2.925-1.821 6.208 6.208 0 0 1 0-3.477 20.168 20.168 0 0 1 5.188-8.831c.607 0 1.049.166 1.215.829a5.087 5.087 0 0 1-1.049 2.207 33.169 33.169 0 0 0-3.587 7.948 1.251 1.251 0 0 0 .386 1.325 8.614 8.614 0 0 0 3.091-1.1c2.207-1.214 3.919-2.153 6.126-3.256a77.355 77.355 0 0 1 8.721-3.7c.334.497.219.552.385.776Zm-1.876-.662a8.1 8.1 0 0 1 2.926-3.808 2.293 2.293 0 0 1 .552.055 4.1 4.1 0 0 0 .718.883c.166 0 .275.111.331 0 .993-.386 1.876-.993 2.925-1.324a3.518 3.518 0 0 1 2.65 1.876c.607 1.048.275 1.987.055 3.035a2.08 2.08 0 0 0 1.876.166 9.326 9.326 0 0 1 3.257-.275c1.545.717 1.545.717 1.821 1.269a.425.425 0 0 1-.552.056 2.92 2.92 0 0 0-1.932-.221 31.574 31.574 0 0 0-5.022 1.159c-.056.056-.221.111-.5.276a11.808 11.808 0 0 1-1.049 1.435 13.2 13.2 0 0 1-4.967 3.919 3.091 3.091 0 0 1-3.643-.552 1.493 1.493 0 0 0-.331-.276 1.074 1.074 0 0 0-.607.5c-.552 1.048-1.048 2.153-1.6 3.256-1.711 3.2-3.367 6.4-5.078 9.6a215.492 215.492 0 0 1-5.189 9.163c-.607 1.048-1.325 2.1-1.987 3.091-.717.276-1.325.386-1.821-.166a1.514 1.514 0 0 1 0-1.38c.607-1.657 1.214-3.422 1.877-5.023a82.098 82.098 0 0 1 2.318-5.022c1.711-3.257 3.366-6.513 5.3-9.494a74.186 74.186 0 0 1 3.09-4.912 55.7 55.7 0 0 1 4.692-6.071c.166-.166.166-.331.331-.5a8.087 8.087 0 0 1-.441-.719Zm-9.88-6.734a1.649 1.649 0 0 1-1.048 1.325c-1.049 0-1.6-.5-2.043-1.876 1.711-1.108 1.711-1.108 3.091.547ZM764.01 53.06a13.875 13.875 0 0 1 4.471-2.1c.22-.111.607-.221.883-.331a1.731 1.731 0 0 0 1.27-1.1 6.254 6.254 0 0 0 .5-3.312.634.634 0 0 0-.386-.662 5.289 5.289 0 0 0-2.268 1.045 23.538 23.538 0 0 0-3.643 3.367 8 8 0 0 0-1.766 3.477c-.055.055-.331.055-.11.221.055-.055.11-.166.166-.166a1.244 1.244 0 0 0 .883-.439Zm.607 1.987c-.221.111-.166.276.11.331a3.267 3.267 0 0 0 2.043-1.545c.166-.055.386.111.5-.276a.389.389 0 0 0-.552.221c-.942.055-1.438.883-2.101 1.269Z" transform="translate(-581.55 -7.398)" style="fill:#fff"/></svg>