<svg xmlns="http://www.w3.org/2000/svg" width="30.278" height="71.161" viewBox="0 0 30.278 71.161"><defs><style>.a {
  fill: #fff;
}

</style></defs><path class="a" d="M700.92,603.952c-.338-1.473-.614-2.75-.813-3.728l-.085-.479c-1.139-5.723-3.063-15.309-8.633-18.9a8.624,8.624,0,0,0-6.968-1.058c-2.959.756-4.419,4.261-4.467,10.766-.118,11.271,5.043,37.591,10.834,39.194a4.705,4.705,0,0,0,4.883-1.043c3.279-3.359,1.058-12.269-1.511-21.092-.4-1.384-.739-2.572-.823-3.05a1.919,1.919,0,1,0-3.78.666c.12.68.455,1.843.919,3.45,2.935,10.161,3.756,15.993,2.461,17.338-.221.221-.871.075-.972.093-2.8-1.871-9.829-28.043-7.838-39.593.4-2.3,1.04-2.937,1.238-3a4.822,4.822,0,0,1,3.972.573c4.215,2.686,6,11.621,6.948,16.416l.085.479c.2,1,.48,2.28.826,3.8,2.144,9.651,7.139,32.233,1.833,39.716a4.986,4.986,0,0,1-3.736,2.244c-6.748.775-9.266-4.81-11.3-14.714-1.283-6.244-2.315-12.687-3.282-18.909-.609-3.894-1.238-7.757-1.914-11.588a1.933,1.933,0,0,0-2.223-1.557,1.955,1.955,0,0,0-1.611,2.207c.67,3.8,1.27,7.649,1.9,11.513,1,6.268,2.017,12.766,3.338,19.081,1.384,6.667,3.94,19.1,15.527,17.763.2-.036.407-.046.583-.077a8.843,8.843,0,0,0,5.838-3.731c6.282-8.877,1.38-30.93-1.23-42.785Z" transform="translate(-674.938 -579.485)"></path></svg>