<svg xmlns="http://www.w3.org/2000/svg" width="143.925" height="74.646"><path d="M1134.362 55.876a3.4 3.4 0 0 0 2.925 0l8-2.925c1.49-.552 3.091-.993 4.691-1.6a8.563 8.563 0 0 1 2.925-.5c.331.111.552.386.5.993-.828.387-1.821.607-2.7.993-1.049.331-1.932.828-2.925 1.159-1.656.773-3.257 1.435-4.857 2.153-1.435.662-2.926 1.1-4.361 1.656a6.106 6.106 0 0 1-2.98.166 7.926 7.926 0 0 1-3.532-3.588 7.157 7.157 0 0 1 .772-5.464 49.864 49.864 0 0 1-6.4 2.484l-.5.276a11.8 11.8 0 0 1-1.048 1.435 13.2 13.2 0 0 1-4.967 3.919 3.091 3.091 0 0 1-3.643-.552 1.513 1.513 0 0 0-.331-.276 1.073 1.073 0 0 0-.607.5c-.552 1.048-1.048 2.153-1.6 3.256l-5.077 9.6a215.492 215.492 0 0 1-5.189 9.163c-.607 1.048-1.325 2.1-1.987 3.091-.717.276-1.325.386-1.821-.166a1.515 1.515 0 0 1 0-1.38c.607-1.657 1.214-3.422 1.876-5.023a82.702 82.702 0 0 1 2.318-5.022c1.712-3.257 3.367-6.513 5.3-9.494a74.186 74.186 0 0 1 3.09-4.912 55.672 55.672 0 0 1 4.692-6.071c.166-.166.166-.331.331-.5l-.442-.717a8.1 8.1 0 0 1 2.925-3.808 2.293 2.293 0 0 1 .552.055 4.1 4.1 0 0 0 .718.883c.166 0 .276.111.331 0 .993-.386 1.876-.993 2.925-1.324a3.516 3.516 0 0 1 2.649 1.876c.607 1.048.276 1.987.056 3.035.662.442 7.782-2.98 8.555-3.421a.191.191 0 0 0 .11-.056 7.735 7.735 0 0 1 .994-.441c.828-.387 1.766-.662 2.539-.993a4.006 4.006 0 0 1 2.262 1.269 2.808 2.808 0 0 1 .166 2.208c-2.207 2.815-2.207 2.815-7.727 6.016a1.832 1.832 0 0 0 .492 2.047Zm-16.117-2.816a13.877 13.877 0 0 1 4.471-2.1l.883-.331a1.731 1.731 0 0 0 1.27-1.1 6.254 6.254 0 0 0 .5-3.312.635.635 0 0 0-.386-.662 5.289 5.289 0 0 0-2.263 1.048 23.538 23.538 0 0 0-3.643 3.367 8 8 0 0 0-1.766 3.477c-.055.055-.331.055-.11.221.055-.055.11-.166.166-.166a1.245 1.245 0 0 0 .878-.442Zm.607 1.987c-.221.111-.166.276.11.331a3.266 3.266 0 0 0 2.043-1.545c.166-.055.386.111.5-.276a.389.389 0 0 0-.552.221c-.941.055-1.438.883-2.1 1.269Zm20.7-7.948c-.331-.441-.773-.275-1.1-.166-1.766.718-2.87 1.932-4.305 4.03 3.306-1.435 4.299-2.208 5.403-3.863Zm10.874 7.231c0-.331-.055-.5.056-.662a11.547 11.547 0 0 1 2.815-4.636 6.918 6.918 0 0 0 .994-1.325 9.4 9.4 0 0 1 2.484-2.207 6.335 6.335 0 0 1 3.7-.884 3.094 3.094 0 0 1 3.312 3.036v.883c.387.552.938.442 1.38.386.773-.166 1.6-.166 2.373-.275a24.011 24.011 0 0 1 5.464-.718c.938 0 2.043 0 2.539 1.159-.111.276-.331.221-.552.111a3.392 3.392 0 0 0-2.1-.055c-2.871.441-5.8 1.159-8.666 1.6a5.386 5.386 0 0 0-3.257 1.821 15.778 15.778 0 0 1-5.85 3.7 3.809 3.809 0 0 1-4.03-.662 7.031 7.031 0 0 1-.664-1.272Zm2.926.773a14.63 14.63 0 0 0 3.753-2.043c.442-.275 1.1-.331 1.27-.993a3.147 3.147 0 0 0-1.987-.717c-.773-.055-1.159-.993-2.208-.828a13.394 13.394 0 0 0-1.987 4.194.838.838 0 0 0 1.157.384Zm7.451-5.354a4.036 4.036 0 0 0 1.6-2.925c.055-.221-.111-.5-.166-.662a1.5 1.5 0 0 0-1.159-.5 9.354 9.354 0 0 0-1.932.552c-.386.386.331.828-.11 1.159a13.059 13.059 0 0 0-.884-.166 4.125 4.125 0 0 0-2.594 2.484 11.243 11.243 0 0 0 5.242.057Zm12.64-1.214a8.1 8.1 0 0 1 2.926-3.808 2.292 2.292 0 0 1 .552.055 4.106 4.106 0 0 0 .718.883c.166 0 .276.111.331 0 .993-.386 1.876-.993 2.925-1.324a3.518 3.518 0 0 1 2.649 1.876c.607 1.048.275 1.987.055 3.035a2.08 2.08 0 0 0 1.876.166 9.327 9.327 0 0 1 3.257-.275c1.545.717 1.545.717 1.821 1.269a.425.425 0 0 1-.552.056 2.92 2.92 0 0 0-1.932-.221 31.576 31.576 0 0 0-5.022 1.159c-.056.056-.221.111-.5.276a11.782 11.782 0 0 1-1.049 1.435 13.2 13.2 0 0 1-4.967 3.919 3.09 3.09 0 0 1-3.643-.552 1.493 1.493 0 0 0-.331-.276 1.074 1.074 0 0 0-.607.5c-.552 1.048-1.048 2.153-1.6 3.256-1.712 3.2-3.367 6.4-5.078 9.6a215.492 215.492 0 0 1-5.189 9.163c-.607 1.048-1.325 2.1-1.987 3.091-.717.276-1.325.386-1.821-.166a1.516 1.516 0 0 1 0-1.38c.607-1.657 1.215-3.422 1.877-5.023a82.098 82.098 0 0 1 2.318-5.022c1.711-3.257 3.366-6.513 5.3-9.494a73.377 73.377 0 0 1 3.091-4.912 55.59 55.59 0 0 1 4.691-6.071c.166-.166.166-.331.331-.5a8.115 8.115 0 0 1-.443-.716Zm1.435 4.526a13.875 13.875 0 0 1 4.471-2.1c.221-.111.607-.221.883-.331a1.729 1.729 0 0 0 1.27-1.1 6.252 6.252 0 0 0 .5-3.312.634.634 0 0 0-.386-.662 5.289 5.289 0 0 0-2.263 1.048 23.538 23.538 0 0 0-3.643 3.367 8 8 0 0 0-1.766 3.477c-.055.055-.331.055-.11.221.055-.055.11-.166.166-.166a1.244 1.244 0 0 0 .876-.443Zm.607 1.987c-.221.111-.166.276.11.331a3.266 3.266 0 0 0 2.042-1.545c.166-.055.386.111.5-.276a.389.389 0 0 0-.552.221c-.943.054-1.439.882-2.102 1.268Zm29.253.829a3.4 3.4 0 0 0 2.926 0l8-2.925c1.49-.552 3.091-.993 4.692-1.6a8.56 8.56 0 0 1 2.926-.5c.331.111.552.386.5.993-.828.387-1.821.607-2.7.993-1.048.331-1.932.828-2.925 1.159-1.657.773-3.257 1.435-4.858 2.153-1.435.662-2.925 1.1-4.36 1.656a6.106 6.106 0 0 1-2.98.166 7.931 7.931 0 0 1-3.533-3.588 7.008 7.008 0 0 1 .276-4.415c-1.821 1.325-3.533 2.594-6.845 5.353a13.88 13.88 0 0 1-3.588 2.7c-2.373.718-4.084-.662-3.808-3.145a43.329 43.329 0 0 1 3.808-13.136 77.827 77.827 0 0 1 7.176-12.418 2.656 2.656 0 0 0 .828-1.712c-2.208-.166-4.25.662-6.348 1.1-4.194.938-8.72 1.766-12.418 3.919-.5.166-1.048.5-1.325-.166-.331-.717.276-.827.717-1.214a48.011 48.011 0 0 1 5.127-2.25 122.739 122.739 0 0 1 14.847-3.312 4.32 4.32 0 0 0 2.7-1.545 54.2 54.2 0 0 1 14.461-12.253 28.356 28.356 0 0 1 12.86-4.361 12.145 12.145 0 0 1 7.837 1.49 8.191 8.191 0 0 1 4.14 4.03c1.048 2.649.552 4.747-1.712 6.4a19.462 19.462 0 0 1-3.919 2.153 58.81 58.81 0 0 1-14.571 2.87c-5.3.717-10.377 1.38-15.731 1.766a6.031 6.031 0 0 0-4.084 2.484 70.736 70.736 0 0 0-12.419 24.561 7.15 7.15 0 0 0-.552 2.539c0 1.1.331 1.38 1.435.939 1.214-.773 2.152-1.49 3.367-2.429 4.03-3.091 7.286-5.685 10.1-7.782a.477.477 0 0 1 .331-.166 8.733 8.733 0 0 1 1.884-1.05c.828-.387 1.766-.662 2.539-.993a4.011 4.011 0 0 1 2.263 1.269 2.816 2.816 0 0 1 .166 2.208c-2.208 2.815-2.208 2.815-7.727 6.016a1.832 1.832 0 0 0 .495 2.042Zm5.189-8.776c-.331-.441-.773-.275-1.1-.166-1.766.718-2.87 1.932-4.305 4.03 3.306-1.437 4.299-2.21 5.403-3.865Zm-1.932-22.629c5.906-.717 11.977-1.545 18.048-2.373a50.524 50.524 0 0 0 11.812-3.2 8.32 8.32 0 0 0 3.477-2.429c1.214-1.38 1.214-2.428-.166-3.808a10.341 10.341 0 0 0-5.575-2.925 18.442 18.442 0 0 0-9.935.938c-7.34 2.7-13.246 7.4-18.379 13.082-.167.11-.167.275-.332.552a2.853 2.853 0 0 0 1.048.161Z" transform="translate(-1099.477 -7.398)" style="fill:#fff"/></svg>