<svg xmlns="http://www.w3.org/2000/svg" width="191.643" height="62.638"><path d="m.168-9.128-.224-.336a3.661 3.661 0 0 1-.224-.392 7.934 7.934 0 0 1 1.092-2.016 11.75 11.75 0 0 1 1.876-1.848h.252a.981.981 0 0 1 .308.056 3.488 3.488 0 0 0 .364.5q.2.224.364.392a.345.345 0 0 1 .2.056q.084.056.14-.056A9.725 9.725 0 0 0 5.8-13.44a9.725 9.725 0 0 1 1.484-.672 3.614 3.614 0 0 1 2.688 1.9 2.358 2.358 0 0 1 .336 1.54q-.112.756-.28 1.54A1.593 1.593 0 0 0 11-8.82a5.016 5.016 0 0 0 .924-.14 5.2 5.2 0 0 1 1.652-.28h1.652q.56.28.9.42a2.015 2.015 0 0 1 .5.28 1.589 1.589 0 0 1 .252.252 2.3 2.3 0 0 1 .2.336.378.378 0 0 1-.56.056 1.98 1.98 0 0 0-.952-.308 3.684 3.684 0 0 0-1.008.084q-1.288.28-2.576.5a14.76 14.76 0 0 0-2.52.672.651.651 0 0 1-.168.112l-.336.168q-.224.336-.5.728t-.56.728a16.678 16.678 0 0 1-2.3 2.3 12.013 12.013 0 0 1-2.744 1.68A3.826 3.826 0 0 1 .9-.9a3.129 3.129 0 0 1-1.736-.9 1.594 1.594 0 0 0-.336-.28 1.178 1.178 0 0 0-.616.5A16.467 16.467 0 0 0-2.6.056q-.364.84-.812 1.68Q-4.7 4.2-5.992 6.608t-2.576 4.872q-1.288 2.352-2.576 4.648t-2.688 4.648q-.448.784-.98 1.568t-1.036 1.568a3.314 3.314 0 0 1-1.008.252 1.028 1.028 0 0 1-.84-.42 1.152 1.152 0 0 1-.168-.756 2.94 2.94 0 0 1 .168-.644q.448-1.288.924-2.576t.98-2.52q.56-1.288 1.148-2.548t1.2-2.548q1.288-2.52 2.6-4.928t2.772-4.7L-6.524 0q.756-1.232 1.6-2.464 1.06-1.624 2.264-3.164t2.492-3A.746.746 0 0 0 0-8.876a.746.746 0 0 1 .168-.252ZM3.92-4.536A1.733 1.733 0 0 0 2.744-4a3.943 3.943 0 0 1-.952.756q-.448.224.112.336a7.189 7.189 0 0 0 1.148-.532 2.542 2.542 0 0 0 .924-1.04.382.382 0 0 1 .252-.028q.14.028.252-.252a.377.377 0 0 0-.56.224Zm-3.64-.28a.931.931 0 0 0 .5-.14 2.2 2.2 0 0 0 .392-.308 14.434 14.434 0 0 1 4.54-2.128 1.235 1.235 0 0 1 .42-.168 2.058 2.058 0 0 0 .476-.168A1.712 1.712 0 0 0 7.9-8.848a8.2 8.2 0 0 0 .472-1.652 5.788 5.788 0 0 0 .028-1.708 1.331 1.331 0 0 0-.056-.364.508.508 0 0 0-.336-.308 4.361 4.361 0 0 0-1.176.392 8.889 8.889 0 0 0-1.12.672 21.564 21.564 0 0 0-1.96 1.624q-.9.84-1.736 1.792A6.609 6.609 0 0 0 .952-6.8a11.431 11.431 0 0 0-.728 1.928.355.355 0 0 1-.168.084q-.112.028.056.14Zm18.256 6.048a7.016 7.016 0 0 1-.168-2.352 11.061 11.061 0 0 1 .732-2.856l.5-1.2a9.59 9.59 0 0 1 .476-.98q.252-.448.5-.98t.588-1.2a13.123 13.123 0 0 1 1.064-1.848 8.045 8.045 0 0 0 .9-1.624 1.574 1.574 0 0 0 .056-.364.872.872 0 0 0-.112-.364.619.619 0 0 0-.42-.308 2.437 2.437 0 0 0-.644-.084 8.512 8.512 0 0 0-1.4.336q-.672.224-1.344.392-.336.5-.84 1.456t-1.008 2.036q-.5 1.092-1.008 2.128t-.84 1.652a.952.952 0 0 1-.476.084 2.585 2.585 0 0 0-.364-.028.651.651 0 0 1-.168-.112.651.651 0 0 0-.168-.112.651.651 0 0 1-.168-.112 2.47 2.47 0 0 1 .2-1.316q.308-.868.728-1.792t.784-1.708a3.27 3.27 0 0 0 .364-1.064.6.6 0 0 0-.308-.532 5.7 5.7 0 0 0-.672-.364 3.865 3.865 0 0 1-.7-.42 1.037 1.037 0 0 1-.392-.756 11.4 11.4 0 0 1 1.172-1.932 5.293 5.293 0 0 1 2.016-1.6A2.764 2.764 0 0 1 18.508-17q.532-.028 1.148-.028a3.918 3.918 0 0 1 .56.28 1.836 1.836 0 0 1 .56.616 3.354 3.354 0 0 1-.112.868 3.147 3.147 0 0 0-.112.812 1.947 1.947 0 0 0 1.4.364 4.279 4.279 0 0 1 1.792.252 3.407 3.407 0 0 0 .5.392 2.411 2.411 0 0 1 .616.616q.056.448.084.756t.028.588a2.849 2.849 0 0 1-.056.56 4.959 4.959 0 0 1-.224.728q-.784 1.512-1.68 3.108a25.589 25.589 0 0 0-1.456 3q-.336.84-.616 1.764a14.526 14.526 0 0 0-.42 1.736A6.726 6.726 0 0 0 20.412.84a1.177 1.177 0 0 0 .364.9 4.228 4.228 0 0 0 1.344-.224 9.4 9.4 0 0 0 1.232-.5q3.92-2.072 7-3.976a56.339 56.339 0 0 1 5.992-3.248q.672-.28 1.12-.476A7.712 7.712 0 0 1 38.276-7q.364-.112.7-.224t.784-.28q.168-.056.5-.2a4.728 4.728 0 0 1 .672-.224 1.515 1.515 0 0 1 .644-.028.733.733 0 0 1 .476.28q.112.224-.448.5A20.289 20.289 0 0 1 39-5.992a30.014 30.014 0 0 0-2.824 1.232q-1.344.728-2.52 1.512T31.3-1.708Q30.128-.952 28.924-.2a26.274 26.274 0 0 1-2.6 1.428 8.331 8.331 0 0 1-1.288.728 8.331 8.331 0 0 0-1.288.728 3.421 3.421 0 0 1-2.436.392A5.886 5.886 0 0 1 19.04 1.9a1.943 1.943 0 0 1-.252-.336 1.943 1.943 0 0 0-.252-.332ZM17.248-13.5a1.34 1.34 0 0 1 .532-.28q.252-.056-.028-.672a.436.436 0 0 0-.392.168 1.694 1.694 0 0 0-.112.784Zm34.1 10.92a1.95 1.95 0 0 1-.392-.392 1.835 1.835 0 0 1-.224-.28 4.452 4.452 0 0 1-.364-1.176 7.183 7.183 0 0 1-.084-1.064 8.383 8.383 0 0 0-.056-.98 3.93 3.93 0 0 0-.224-.924q-1.232 1.008-2.38 1.96t-2.268 1.9a6.724 6.724 0 0 1-2.044 1.12 4.005 4.005 0 0 1-2.38-.056 2.94 2.94 0 0 1-1.288-1.512 1.573 1.573 0 0 0-.028-.308.859.859 0 0 1 .028-.364 8.658 8.658 0 0 1 .784-2.464 14.049 14.049 0 0 1 1.288-2.1 14.854 14.854 0 0 1 1.6-1.82q.868-.84 1.764-1.68a8.569 8.569 0 0 1 .812-.728q.364-.28.756-.56a12.668 12.668 0 0 1 1.372-.14 3.294 3.294 0 0 1 1.428.308q.28.336.616.784t.672.84a1.193 1.193 0 0 1 .42.056.217.217 0 0 0 .252-.056q.616-.56 1.232-1.092t1.232-1.148a1.155 1.155 0 0 1 .756.252 4.373 4.373 0 0 1 .588.588 2.507 2.507 0 0 1-.056 1.4q-.448 1.064-.98 2.1t-.98 2.164a13.256 13.256 0 0 0-.728 1.9 11.39 11.39 0 0 0-.392 1.96 1.243 1.243 0 0 0 .476.336.743.743 0 0 0 .476-.056q.784-.392 1.624-.784a16.279 16.279 0 0 0 1.736-.952 24.706 24.706 0 0 1 2.884-1.82q1.6-.868 3.052-1.708a4.187 4.187 0 0 1 1.232-.476 1.868 1.868 0 0 1 1.232.364 1.321 1.321 0 0 1-.42.448 1.746 1.746 0 0 0-.42.392q-1.96 1.348-3.78 2.58t-3.78 2.52q-.616.392-1.036.616a2.54 2.54 0 0 1-.924.28 6.734 6.734 0 0 1-1.232 0q-.728-.056-1.848-.224Zm-9.3-1.792h.308a.348.348 0 0 0 .252-.112A35.3 35.3 0 0 0 46.34-7.42q1.764-1.6 3.444-3.276a.415.415 0 0 0 .2-.28 2.04 2.04 0 0 0 .028-.336 7.38 7.38 0 0 0-.532-.756 1.61 1.61 0 0 0-.7-.476 11.751 11.751 0 0 0-6.724 8.176ZM64.4-3.248q.336.336 1.344.028a17.654 17.654 0 0 0 2.268-.9q1.26-.588 2.632-1.26T73.08-6.5a35.919 35.919 0 0 1 4.508-1.76 40.914 40.914 0 0 1 4.732-1.2q.448.224.42.252a1.406 1.406 0 0 0 .14.476.488.488 0 0 0-.14.252.261.261 0 0 1-.2.2 21.19 21.19 0 0 1-2.688 1.064 21.189 21.189 0 0 0-2.684 1.056A48.8 48.8 0 0 0 71.9-3.64a28.766 28.766 0 0 1-5.376 2.3l-.448.112a3.971 3.971 0 0 0-.5.168 5.355 5.355 0 0 1-3.864-3.192 4.313 4.313 0 0 1 .336-2.24Q62.5-7.448 63-8.4a13.165 13.165 0 0 1 1.82-2.52 21.066 21.066 0 0 1 2.212-2.072 4.311 4.311 0 0 1 1.232-.784 2.561 2.561 0 0 1 1.4-.168 1.962 1.962 0 0 1 .616.112q.336.112.616.224a1.835 1.835 0 0 1 .28.224l.224.224q.112.392.168.672t.112.5q-.224.5-.392.5a1.291 1.291 0 0 1-.448-.112 1.132 1.132 0 0 0-1.456-.056q-.5.392-1.064.784a7.516 7.516 0 0 0-1.008.84 14.153 14.153 0 0 0-1.68 2.016 22.222 22.222 0 0 0-1.344 2.24 1.6 1.6 0 0 0-.252.868 12.9 12.9 0 0 0 .364 1.66Zm68.432-18.144a2.8 2.8 0 0 1 1.848 1.456 4.57 4.57 0 0 1 0 2.856 5.507 5.507 0 0 0-.7-1.624 3.355 3.355 0 0 0-1.008-.98 3.9 3.9 0 0 0-1.232-.5q-.644-.14-1.316-.252-3.472-.5-6.944-.728t-7.168-.224q-6.888 0-13.552.392t-13.608.84q-.952 2.352-1.988 4.592t-1.988 4.592q-1.624 3.86-2.912 7.752A54.269 54.269 0 0 0 80.3 4.536a8.038 8.038 0 0 0-.3 1.54 1.237 1.237 0 0 0 .644 1.26.6.6 0 0 0 .5.2 1.878 1.878 0 0 0 .588-.168 7.185 7.185 0 0 0 .644-.336 3.586 3.586 0 0 1 .672-.308 19.95 19.95 0 0 0 2.24-1.708q1.344-1.148 2.94-2.6T91.532-.7q1.708-1.652 3.36-3.22t3.136-2.912q1.484-1.344 2.66-2.24a6.449 6.449 0 0 0 .532-.476.707.707 0 0 1 .48-.252 2.021 2.021 0 0 1 .9-.392q.672-.168.9.112a.222.222 0 0 1 .028.28 1.316 1.316 0 0 1-.252.336 2.886 2.886 0 0 1-.364.308 2.489 2.489 0 0 0-.308.252 5.037 5.037 0 0 1-.9.812 9.858 9.858 0 0 0-.952.756q-.9.84-2.3 2.184t-3.024 2.94q-1.624 1.6-3.36 3.248T88.7 4.116q-1.62 1.428-3.02 2.548a14.022 14.022 0 0 1-2.3 1.568 5.788 5.788 0 0 1-1.4.644 1.968 1.968 0 0 1-1.344-.084 2.3 2.3 0 0 1-2.072-1.036 5.274 5.274 0 0 1-.664-2.884q.224-1.4.448-2.716t.448-2.492q1.624-5.1 3.472-10.024a86.575 86.575 0 0 1 4.2-9.464q-3.024.224-5.964.42t-5.964.476q-4.368.168-8.568.392t-8.568.5a10.639 10.639 0 0 1-2.772.084q-1.372-.14-3-.42a3.733 3.733 0 0 1-1.82-.476 4.233 4.233 0 0 1-1.54-1.6 1.479 1.479 0 0 1 .084-1.624 2.277 2.277 0 0 1 1.428-1.12.671.671 0 0 1 .868.084 2.634 2.634 0 0 1 .644.812.613.613 0 0 1 .028.476.447.447 0 0 1-.252.2 2.052 2.052 0 0 1-.392.084.559.559 0 0 0-.336.14.259.259 0 0 0-.28.168 1.639 1.639 0 0 1-.28.448 4 4 0 0 0 2.044.84 21.667 21.667 0 0 0 2.212.112q2.52-.28 5.18-.336t5.18-.28q5.768-.5 11.62-1.036t11.62-.812q1.4-3.024 2.94-5.768t3.164-5.264q.728-1.12 1.568-2.212a20.952 20.952 0 0 1 1.788-2.04q.224-.224.5-.56a.9.9 0 0 1 .728-.336q.448 0 .56.2a2.061 2.061 0 0 0 .336.42q.28.224.14.448a.839.839 0 0 0-.14.448 39.211 39.211 0 0 0-5.1 6.8 58.509 58.509 0 0 0-3.752 7.588q3.024-.28 6.16-.336t6.384-.28q6.44-.28 12.964-.168a100.334 100.334 0 0 1 12.964 1.064 8.945 8.945 0 0 1 2.1.224 9.875 9.875 0 0 1 1.888.672ZM119.448-9.968a1.378 1.378 0 0 1 .28.5.544.544 0 0 0 .112.28 3.661 3.661 0 0 1-.224.392q-.112.168-.224.168-3.08 1.288-6.02 2.856T107.52-2.52a21.251 21.251 0 0 1-2.632 1.568 12.35 12.35 0 0 1-2.856 1.008 4.781 4.781 0 0 1-2.968-1.848 4.957 4.957 0 0 1-.252-1.736 8.46 8.46 0 0 1 .252-1.792 19.15 19.15 0 0 1 2.016-4.76 19.359 19.359 0 0 1 3.248-4.2 1.732 1.732 0 0 1 .784.168.914.914 0 0 1 .448.672 2.555 2.555 0 0 1-.392 1.148q-.336.532-.672 1.092-1.12 1.96-2.1 3.948a21.882 21.882 0 0 0-1.54 4.116q-.28.56.392 1.344a6.929 6.929 0 0 0 1.624-.42 13.927 13.927 0 0 0 1.512-.7q1.68-.952 3.108-1.708t3.108-1.6q2.52-1.288 4.62-2.128t4.228-1.62Zm-14.672-7.28q.672-.392 1.036-.616a.907.907 0 0 1 .644-.168 1.3 1.3 0 0 1 .616.392q.336.336.84.952a1.61 1.61 0 0 1-1.064 1.344 1.835 1.835 0 0 1-1.26-.42 3.3 3.3 0 0 1-.812-1.484Zm14.168 14q.336.336 1.344.028a17.653 17.653 0 0 0 2.268-.9q1.26-.588 2.632-1.26t2.436-1.12a35.919 35.919 0 0 1 4.508-1.764 40.915 40.915 0 0 1 4.732-1.2q.448.224.42.252a1.407 1.407 0 0 0 .14.476.488.488 0 0 0-.14.252.261.261 0 0 1-.2.2 21.19 21.19 0 0 1-2.684 1.06 21.189 21.189 0 0 0-2.688 1.064 48.8 48.8 0 0 0-5.264 2.52 28.766 28.766 0 0 1-5.376 2.3l-.448.112a3.971 3.971 0 0 0-.5.168 5.355 5.355 0 0 1-3.864-3.192 4.313 4.313 0 0 1 .336-2.24q.448-.952.952-1.9a13.165 13.165 0 0 1 1.82-2.52 21.065 21.065 0 0 1 2.212-2.072 4.311 4.311 0 0 1 1.232-.784 2.561 2.561 0 0 1 1.4-.168 1.962 1.962 0 0 1 .616.112q.336.112.616.224a1.835 1.835 0 0 1 .28.224l.224.224q.112.392.168.672t.112.5q-.224.5-.392.5a1.291 1.291 0 0 1-.448-.112 1.132 1.132 0 0 0-1.456-.056q-.5.392-1.064.784a7.515 7.515 0 0 0-1.008.84 14.154 14.154 0 0 0-1.68 2.016 22.223 22.223 0 0 0-1.344 2.24 1.6 1.6 0 0 0-.252.868 12.9 12.9 0 0 0 .36 1.652Zm17.92-1.232a1.56 1.56 0 0 0-.084 1.18 3.516 3.516 0 0 0 .588.9 2.666 2.666 0 0 0 1.484.336 5.181 5.181 0 0 0 1.484-.336q2.016-.784 4.032-1.484t4.088-1.484q1.12-.448 2.324-.812t2.436-.82a6.89 6.89 0 0 1 1.568-.392 10.938 10.938 0 0 1 1.4-.112q.56.168.5 1.008a11.228 11.228 0 0 1-1.344.5q-.728.224-1.4.5-.784.28-1.484.588t-1.484.588q-1.288.616-2.492 1.12t-2.436 1.064a23.514 23.514 0 0 1-2.212.868q-1.092.364-2.212.812a4.56 4.56 0 0 1-1.54.28 9.746 9.746 0 0 1-1.48-.104 9.119 9.119 0 0 1-2.1-1.54 8 8 0 0 1-1.484-2.1 7 7 0 0 1 .168-4.228 13.82 13.82 0 0 1 2.24-3.724q.448-.28 1.036-.644a6.517 6.517 0 0 1 1.2-.588 13.189 13.189 0 0 1 1.288-.5 13.188 13.188 0 0 0 1.288-.5 4.516 4.516 0 0 1 2.3 1.288 2.729 2.729 0 0 1 .168 2.24q-.84 1.064-1.372 1.708a7.272 7.272 0 0 1-1.288 1.2q-.756.56-1.932 1.26Zm.28-2.912q1.232-.56 2.1-1.008a14.287 14.287 0 0 0 1.484-.868 5.008 5.008 0 0 0 1.036-.924q.42-.5.868-1.12a.67.67 0 0 0-.56-.308 2.054 2.054 0 0 0-.56.14 7.024 7.024 0 0 0-2.3 1.512 18.693 18.693 0 0 0-2.068 2.576Zm35.056-1.96a1.958 1.958 0 0 1 .868-.028 1.06 1.06 0 0 1 .7.644 9.029 9.029 0 0 1-1.316.364 23.24 23.24 0 0 0-2.492.756q-1.288.448-2.52.9t-2.128.784q-.784.392-1.568.7a12.025 12.025 0 0 0-1.568.756q-.784.392-1.652.784a16.6 16.6 0 0 0-1.708.9q-.168.336-.364.672a3.586 3.586 0 0 0-.308.672 16.894 16.894 0 0 1-1.764 4.172q-1.148 1.932-2.492 3.78a14 14 0 0 1-6.16 4.592 8.017 8.017 0 0 1-2.268.448 5.207 5.207 0 0 1-2.324-.448 2.258 2.258 0 0 0-.364-.2.973.973 0 0 1-.308-.2 1.9 1.9 0 0 1-.728-1.092 2.243 2.243 0 0 1 .112-1.2q.448-1.008.924-1.96a6.655 6.655 0 0 1 1.26-1.736 23.862 23.862 0 0 1 4.06-3.728 40.672 40.672 0 0 1 4.62-2.884q.952-.5 1.9-.924a6.881 6.881 0 0 0 1.68-1.036 2.163 2.163 0 0 0 .476-1.288q-.028-.56-.028-.784a3.649 3.649 0 0 0-.952-1.736 5.92 5.92 0 0 0-1.2-.5q-.588-.172-1.088-.34a2.93 2.93 0 0 1-.868-.448 1.147 1.147 0 0 1-.42-.84 2.19 2.19 0 0 1 .2-1.344 4.884 4.884 0 0 1 .84-1.176 5.545 5.545 0 0 1 1.26-.98q.728-.42 1.456-.756a2.7 2.7 0 0 1 1.848-.224 1.517 1.517 0 0 1 1.12.952 2.615 2.615 0 0 1-.5 1.232 5.981 5.981 0 0 1-.9.924q-.5.42-1.036.84a4.033 4.033 0 0 0-.868.924q.056-.056.336.028a3.909 3.909 0 0 1 .616.252 3.461 3.461 0 0 1 .644.42 2.849 2.849 0 0 1 .476.476 3.748 3.748 0 0 1 .812 1.54 10.483 10.483 0 0 0 .476 1.6q1.288-.616 2.6-1.12t2.548-1.008q2.128-.672 4.172-1.232t3.888-.9ZM154.112 2.52a9.838 9.838 0 0 0 .812-1.54 6.9 6.9 0 0 0 .308-1.54.949.949 0 0 0-.9 0 9.748 9.748 0 0 1-1.2.756 9.75 9.75 0 0 0-1.2.756 30.036 30.036 0 0 0-6.272 5.1 10.069 10.069 0 0 0-1.46 2.404 2.231 2.231 0 0 0-.14.924 2.022 2.022 0 0 0 .532 1.092 3.952 3.952 0 0 0 2.044-.42 10.65 10.65 0 0 0 1.708-1.092 21.952 21.952 0 0 0 5.768-6.44Z" transform="translate(17.875 38.472)" style="fill:#fff"/></svg>