<svg xmlns="http://www.w3.org/2000/svg" width="51.233" height="64.219" viewBox="0 0 51.233 64.219"><defs><style>.a {
  fill: #4b4b4b;
}

</style></defs><path class="a" d="M650.9,1162.932c.427.728.064,2.489.1,3.342.207,4.676.791,9.326,1.078,14,.128,2.077.207,4.169.134,6.25a11.325,11.325,0,0,1-3.158,7.371,79.579,79.579,0,0,1-10.006,9.338c-1.753,1.44-3.539,2.834-5.345,4.2q-1.293.981-2.59,1.957a3.049,3.049,0,0,1-3.918.339,41.158,41.158,0,0,1-9.747-7.021c-2.957-2.813-6.5-6.083-8.354-9.757-2.386-4.719-1.461-10.512-1.346-15.609q.18-8.112.362-16.222,5.363-1.542,10.73-3.077c3.014-.865,6.133-1.65,9.084-2.773q6.6,2.509,13.367,4.561c2.108.635,4.215,1.281,6.3,1.97C648.2,1162,650.6,1162.432,650.9,1162.932Zm-21.722-12.272c-1.752-.72-2.927.816-2.873,2.345-2.813.45-5.614,1.163-8.366,1.776-4.141.919-8.282,1.848-12.426,2.761a2.107,2.107,0,0,0-1.527,2.006q-.189,9.125-.371,18.254c-.107,5.258-.775,10.765,1.281,15.751,1.844,4.473,5.737,8.2,9.158,11.525a45.47,45.47,0,0,0,11.44,8.3c1.849.909,3.762,1.934,5.773.865,2.3-1.223,4.419-3.3,6.478-4.894a69.484,69.484,0,0,0,11.764-11.066,20.878,20.878,0,0,0,5.067-12.906c.285-5.563-.235-11.122-.376-16.68-.034-1.329-.05-2.662-.02-3.995.024-1.18.288-2.595-.38-3.675-1.189-1.923-4.785-2.681-6.775-3.5C641.124,1155.108,635.073,1153.089,629.176,1150.66Z" transform="translate(-603.425 -1150.477)"></path><path class="a" d="M639.2,1172.385c-2.49,2.892-4.554,6.195-6.92,9.194q-2.883,3.647-5.882,7.193a57.854,57.854,0,0,0-4.694-7.25,1.109,1.109,0,0,0-1.843,1.071c1.346,3.4,3.251,6.617,4.822,9.92a1.694,1.694,0,0,0,2.642.342c2.694-2.932,5.3-5.943,7.756-9.076a74.219,74.219,0,0,0,6.8-9.325c.909-1.633-1.376-3.589-2.683-2.069" transform="translate(-603.425 -1150.477)"></path></svg>