<svg xmlns="http://www.w3.org/2000/svg" width="51.233" height="64.219"><defs><style>.a{fill:#fff}</style></defs><path class="a" d="M47.475 12.455c.427.728.064 2.489.1 3.342.207 4.676.791 9.326 1.078 14 .128 2.077.207 4.169.134 6.25a11.325 11.325 0 0 1-3.158 7.371 79.579 79.579 0 0 1-10.006 9.338 169.408 169.408 0 0 1-5.345 4.2q-1.293.981-2.59 1.957a3.049 3.049 0 0 1-3.918.339 41.158 41.158 0 0 1-9.747-7.021c-2.957-2.813-6.5-6.083-8.354-9.757-2.386-4.719-1.461-10.512-1.346-15.609q.18-8.112.362-16.222 5.363-1.542 10.73-3.077c3.014-.865 6.133-1.65 9.084-2.773q6.6 2.509 13.367 4.561a248.69 248.69 0 0 1 6.3 1.97c.609.199 3.009.631 3.309 1.131ZM25.753.183c-1.752-.72-2.927.816-2.873 2.345-2.813.45-5.614 1.163-8.366 1.776-4.141.919-8.282 1.848-12.426 2.761A2.107 2.107 0 0 0 .561 9.071Q.372 18.196.19 27.325C.083 32.583-.585 38.09 1.471 43.076c1.844 4.473 5.737 8.2 9.158 11.525a45.47 45.47 0 0 0 11.44 8.3c1.849.909 3.762 1.934 5.773.865 2.3-1.223 4.419-3.3 6.478-4.894a69.484 69.484 0 0 0 11.764-11.066A20.878 20.878 0 0 0 51.151 34.9c.285-5.563-.235-11.122-.376-16.68a83.114 83.114 0 0 1-.02-3.995c.024-1.18.288-2.595-.38-3.675-1.189-1.923-4.785-2.681-6.775-3.5C37.699 4.631 31.648 2.612 25.751.183Z"/><path class="a" d="M35.775 21.908c-2.49 2.892-4.554 6.195-6.92 9.194q-2.883 3.647-5.882 7.193a57.854 57.854 0 0 0-4.694-7.25 1.109 1.109 0 0 0-1.843 1.071c1.346 3.4 3.251 6.617 4.822 9.92a1.694 1.694 0 0 0 2.642.342c2.694-2.932 5.3-5.943 7.756-9.076a74.219 74.219 0 0 0 6.8-9.325c.909-1.633-1.376-3.589-2.683-2.069"/></svg>