<svg xmlns="http://www.w3.org/2000/svg" viewBox="0 0 321.9 59"><path d="M10.9 50.3c-.2 1.5-.7 2.7-1.7 3.5S7.1 55 5.6 55c-1.7 0-3-.6-4-1.8S0 50.3 0 48.3V47c0-1.3.2-2.5.7-3.5s1.1-1.8 2-2.3 1.9-.8 3-.8c1.5 0 2.7.4 3.6 1.3s1.4 2 1.6 3.5H9.1c-.2-1.1-.5-2-1.1-2.5s-1.3-.8-2.3-.8c-1.2 0-2.1.4-2.8 1.3s-1 2.1-1 3.8v1.4c0 1.5.3 2.8 1 3.7s1.5 1.4 2.7 1.4c1 0 1.8-.2 2.4-.7s.9-1.3 1.1-2.5zM12.9 49.4c0-1 .2-2 .6-2.8s1-1.5 1.7-1.9 1.6-.7 2.5-.7c1.4 0 2.6.5 3.5 1.5s1.3 2.3 1.3 4v.1c0 1-.2 2-.6 2.8s-1 1.5-1.7 1.9-1.6.7-2.5.7c-1.4 0-2.6-.5-3.5-1.5s-1.3-2.3-1.3-4.1zm1.8.2c0 1.2.3 2.1.8 2.8s1.3 1.1 2.2 1.1 1.6-.4 2.2-1.1.8-1.7.8-3c0-1.2-.3-2.1-.8-2.8s-1.3-1.1-2.2-1.1-1.6.4-2.2 1.1-.8 1.7-.8 3zM26.4 44.2v1.2c.8-.9 1.8-1.4 3.1-1.4 1.5 0 2.5.6 3 1.7.4-.5.8-.9 1.4-1.2s1.2-.5 2-.5c2.3 0 3.5 1.2 3.5 3.7v7.1h-1.8v-7c0-.8-.2-1.3-.5-1.7s-.9-.6-1.7-.6c-.7 0-1.2.2-1.7.6s-.7.9-.8 1.6v7h-1.8v-6.9c0-1.5-.8-2.3-2.3-2.3-1.2 0-2 .5-2.4 1.5v7.7h-1.8V44.2zM43.8 44.2v1.2c.8-.9 1.8-1.4 3.1-1.4 1.5 0 2.5.6 3 1.7.4-.5.8-.9 1.4-1.2s1.2-.5 2-.5c2.3 0 3.5 1.2 3.5 3.7v7.1H55v-7c0-.8-.2-1.3-.5-1.7s-.9-.6-1.7-.6c-.7 0-1.2.2-1.7.6s-.7.9-.8 1.6v7h-1.8v-6.9c0-1.5-.8-2.3-2.3-2.3-1.2 0-2 .5-2.4 1.5v7.7H42V44.2zM59.5 41.4c0-.3.1-.5.3-.7s.4-.3.8-.3.6.1.8.3.3.4.3.7-.1.5-.3.7-.4.3-.8.3-.6-.1-.8-.3-.3-.4-.3-.7zm2 13.4h-1.8V44.2h1.8zM67.1 41.6v2.6h2v1.4h-2v6.6c0 .4.1.7.3 1 .2.2.5.3.9.3.2 0 .5 0 .9-.1v1.5c-.5.1-.9.2-1.4.2-.8 0-1.4-.2-1.8-.7s-.6-1.2-.6-2.1v-6.6h-1.9v-1.4h1.9v-2.6h1.7zM74 41.6v2.6h2v1.4h-2v6.6c0 .4.1.7.3 1 .2.2.5.3.9.3.2 0 .5 0 .9-.1v1.5c-.5.1-.9.2-1.4.2-.8 0-1.4-.2-1.8-.7s-.6-1.2-.6-2.1v-6.6h-1.9v-1.4h1.9v-2.6H74zM82.1 55c-1.4 0-2.6-.5-3.5-1.4s-1.3-2.2-1.3-3.8v-.3c0-1 .2-2 .6-2.8s1-1.5 1.7-1.9 1.4-.8 2.3-.8c1.4 0 2.4.5 3.2 1.4s1.1 2.2 1.1 3.9v.7H79c0 1 .3 1.9.9 2.5s1.3 1 2.2 1c.6 0 1.2-.1 1.6-.4s.8-.6 1.2-1l1.1.9c-.8 1.3-2.2 2-3.9 2zm-.2-9.5c-.7 0-1.3.3-1.8.8s-.8 1.3-.9 2.2h5.3v-.1c-.1-.9-.3-1.6-.7-2.1s-1.2-.8-1.9-.8zM87.9 49.4c0-1.6.4-2.9 1.2-3.9s1.8-1.5 3-1.5 2.2.4 2.9 1.3v-5.5h1.8v15h-1.7l-.1-1.1c-.7.9-1.7 1.3-3 1.3-1.2 0-2.2-.5-3-1.5s-1.2-2.3-1.2-3.9zm1.8.2c0 1.2.2 2.1.7 2.8s1.2 1 2.1 1c1.1 0 2-.5 2.5-1.5V47c-.5-1-1.4-1.5-2.5-1.5-.9 0-1.6.3-2.1 1s-.7 1.8-.7 3.1zM107.2 41.6v2.6h2v1.4h-2v6.6c0 .4.1.7.3 1 .2.2.5.3.9.3.2 0 .5 0 .9-.1v1.5c-.5.1-.9.2-1.4.2-.8 0-1.4-.2-1.8-.7s-.6-1.2-.6-2.1v-6.6h-1.9v-1.4h1.9v-2.6h1.7zM110.4 49.4c0-1 .2-2 .6-2.8s1-1.5 1.7-1.9 1.6-.7 2.5-.7c1.4 0 2.6.5 3.5 1.5s1.3 2.3 1.3 4v.1c0 1-.2 2-.6 2.8s-1 1.5-1.7 1.9-1.6.7-2.5.7c-1.4 0-2.6-.5-3.5-1.5s-1.3-2.3-1.3-4.1zm1.8.2c0 1.2.3 2.1.8 2.8s1.3 1.1 2.2 1.1 1.6-.4 2.2-1.1.8-1.7.8-3c0-1.2-.3-2.1-.8-2.8s-1.3-1.1-2.2-1.1-1.6.4-2.2 1.1-.8 1.7-.8 3zM136.2 49.6c0 1.6-.4 2.9-1.1 3.9s-1.7 1.5-3 1.5-2.4-.5-3.1-1.4l-.1 1.2h-1.7v-15h1.8v5.6c.7-.9 1.7-1.4 3-1.4s2.3.5 3 1.5 1.1 2.3 1.1 4v.1zm-1.8-.2c0-1.2-.2-2.2-.7-2.9s-1.2-1-2.1-1c-1.2 0-2 .6-2.6 1.7v4.6c.6 1.1 1.4 1.7 2.6 1.7.9 0 1.5-.3 2-1s.8-1.8.8-3.1zM142.8 55c-1.4 0-2.6-.5-3.5-1.4s-1.3-2.2-1.3-3.8v-.3c0-1 .2-2 .6-2.8s1-1.5 1.7-1.9 1.5-.7 2.3-.7c1.4 0 2.4.5 3.2 1.4s1.1 2.2 1.1 3.9v.6h-7.2c0 1 .3 1.9.9 2.5s1.3 1 2.2 1c.6 0 1.2-.1 1.6-.4s.8-.6 1.2-1l1.1.9c-.8 1.3-2.1 2-3.9 2zm-.2-9.5c-.7 0-1.3.3-1.8.8s-.8 1.3-.9 2.2h5.3v-.1c-.1-.9-.3-1.6-.7-2.1s-1.1-.8-1.9-.8zM149 41.4c0-.3.1-.5.3-.7s.4-.3.8-.3.6.1.8.3.3.4.3.7-.1.5-.3.7-.4.3-.8.3-.6-.1-.8-.3-.3-.4-.3-.7zm2 13.4h-1.8V44.2h1.8zM155.4 44.2l.1 1.3c.8-1 1.9-1.5 3.2-1.5 2.2 0 3.4 1.3 3.4 3.8v7h-1.8v-7c0-.8-.2-1.3-.5-1.7s-.9-.5-1.6-.5c-.6 0-1.1.2-1.5.5s-.8.7-1 1.2v7.5h-1.8V44.2zM173.6 45.6h-1.5c.4.5.6 1.2.6 1.8v.2c0 .6-.2 1.2-.5 1.8s-.9 1-1.5 1.3-1.3.5-2.1.5c-.5 0-1-.1-1.5-.2-.3.3-.5.6-.5 1 0 .5.4.8 1.2.8h1.8c1.3 0 2.3.3 3 .7s1 1.2 1 2.1c0 .5-.2 1.1-.7 1.6s-1.1.9-1.9 1.3-1.7.5-2.7.5c-1.4 0-2.5-.3-3.3-.8s-1.2-1.2-1.2-1.9c0-.5.2-1 .5-1.5s.7-.8 1.3-1.1c-.4-.3-.5-.7-.5-1.2 0-.8.4-1.5 1.1-2-1.1-.7-1.7-1.7-1.7-3v-.1c0-1 .4-1.9 1.2-2.5s1.8-1 3-1c.5 0 1 .1 1.5.2h3.6zm-6.9 8.7c-.4.2-.6.4-.8.7s-.3.6-.3 1c0 .5.2.9.7 1.2s1.1.4 2 .4c1 0 1.8-.2 2.4-.6s1-.8 1-1.3-.2-.8-.5-1-.9-.3-1.6-.3h-2.3zm-.5-6.6c0 .5.2 1 .7 1.4s1 .6 1.7.6 1.2-.2 1.7-.6.7-.9.7-1.5v-.2c0-.6-.2-1-.7-1.4s-1-.6-1.7-.6-1.2.2-1.7.6-.7.9-.7 1.5zM184.9 52.1l2.5-7.9h1.9L185 56.4c-.7 1.8-1.7 2.6-3.1 2.6h-.3l-.7-.1v-1.5h.5c.6 0 1.1-.1 1.4-.4s.6-.7.8-1.4l.4-1.1-3.8-10.4h2zM190 49.4c0-1 .2-2 .6-2.8s1-1.5 1.7-1.9 1.6-.7 2.5-.7c1.4 0 2.6.5 3.5 1.5s1.3 2.3 1.3 4v.1c0 1-.2 2-.6 2.8s-1 1.5-1.7 1.9-1.6.7-2.5.7c-1.4 0-2.6-.5-3.5-1.5s-1.3-2.3-1.3-4.1zm1.8.2c0 1.2.3 2.1.8 2.8s1.3 1.1 2.2 1.1 1.6-.4 2.2-1.1.8-1.7.8-3c0-1.2-.3-2.1-.8-2.8s-1.3-1.1-2.2-1.1-1.6.4-2.2 1.1-.8 1.7-.8 3zM208.4 53.7c-.7.8-1.7 1.2-3.1 1.2-1.1 0-2-.3-2.6-1s-.9-1.6-.9-2.9v-6.9h1.8V51c0 1.6.7 2.4 2 2.4 1.4 0 2.3-.5 2.8-1.5v-7.7h1.8v10.6h-1.7zM217.9 45.8c-.3 0-.6-.1-.9-.1-1.2 0-2 .5-2.4 1.5v7.5h-1.8V44.2h1.8v1.2c.6-.9 1.4-1.4 2.5-1.4.4 0 .6 0 .8.1zM233.5 49.6c0 1.6-.4 2.9-1.1 3.9s-1.7 1.5-3 1.5-2.3-.4-3-1.2v5.1h-1.8V44.2h1.7l.1 1.2c.7-.9 1.8-1.4 3.1-1.4s2.3.5 3 1.4 1.1 2.3 1.1 4v.2zm-1.8-.2c0-1.2-.3-2.1-.8-2.8s-1.2-1-2.1-1c-1.1 0-1.9.5-2.5 1.5v5c.5 1 1.4 1.4 2.5 1.4.9 0 1.6-.3 2.1-1s.8-1.7.8-3.1zM240.1 55c-1.4 0-2.6-.5-3.5-1.4s-1.3-2.2-1.3-3.8v-.3c0-1 .2-2 .6-2.8s1-1.5 1.7-1.9 1.5-.7 2.3-.7c1.4 0 2.4.5 3.2 1.4s1.1 2.2 1.1 3.9v.6H237c0 1 .3 1.9.9 2.5s1.3 1 2.2 1c.6 0 1.2-.1 1.6-.4s.8-.6 1.2-1l1.1.9c-.8 1.3-2.1 2-3.9 2zm-.2-9.5c-.7 0-1.3.3-1.8.8s-.8 1.3-.9 2.2h5.3v-.1c-.1-.9-.3-1.6-.7-2.1s-1.2-.8-1.9-.8zM251.5 45.8c-.3 0-.6-.1-.9-.1-1.2 0-2 .5-2.4 1.5v7.5h-1.8V44.2h1.8v1.2c.6-.9 1.4-1.4 2.5-1.4.4 0 .6 0 .8.1zM254.5 54.8v-9.2h-1.7v-1.4h1.7v-1.1c0-1.1.3-2 .9-2.6s1.5-.9 2.6-.9c.4 0 .8.1 1.2.2l-.1 1.5c-.3-.1-.6-.1-1-.1-.6 0-1 .2-1.4.5-.3.3-.5.8-.5 1.5v1.1h2.3v1.4h-2.3v9.2h-1.7zM264.6 55c-1.4 0-2.6-.5-3.5-1.4s-1.3-2.2-1.3-3.8v-.3c0-1 .2-2 .6-2.8s1-1.5 1.7-1.9 1.5-.7 2.3-.7c1.4 0 2.4.5 3.2 1.4s1.1 2.2 1.1 3.9v.6h-7.2c0 1 .3 1.9.9 2.5s1.3 1 2.2 1c.6 0 1.2-.1 1.6-.4s.8-.6 1.2-1l1.1.9c-.8 1.3-2.2 2-3.9 2zm-.3-9.5c-.7 0-1.3.3-1.8.8s-.8 1.3-.9 2.2h5.3v-.1c-.1-.9-.3-1.6-.7-2.1s-1.1-.8-1.9-.8zM275 53.5c.6 0 1.2-.2 1.7-.6s.7-.9.8-1.5h1.7c0 .6-.2 1.2-.6 1.7s-.9 1-1.5 1.3-1.3.5-2 .5c-1.4 0-2.6-.5-3.4-1.4s-1.3-2.3-1.3-3.9v-.3c0-1 .2-1.9.6-2.7s.9-1.4 1.6-1.9 1.5-.7 2.5-.7c1.2 0 2.2.4 3 1.1s1.2 1.6 1.3 2.8h-1.7c-.1-.7-.3-1.2-.8-1.7s-1-.7-1.7-.7c-.9 0-1.6.3-2.1 1s-.8 1.6-.8 2.9v.3c0 1.2.3 2.2.8 2.8s1 1 1.9 1zM283.9 41.6v2.6h2v1.4h-2v6.6c0 .4.1.7.3 1 .2.2.5.3.9.3.2 0 .5 0 .9-.1v1.5c-.5.1-.9.2-1.4.2-.8 0-1.4-.2-1.8-.7s-.6-1.2-.6-2.1v-6.6h-1.9v-1.4h1.9v-2.6h1.7zM293.9 54.8v-9.2h-1.7v-1.4h1.7v-1.1c0-1.1.3-2 .9-2.6s1.5-.9 2.6-.9c.4 0 .8.1 1.2.2l-.1 1.5c-.3-.1-.6-.1-1-.1-.6 0-1 .2-1.4.5-.3.3-.5.8-.5 1.5v1.1h2.3v1.4h-2.3v9.2h-1.7zM300.1 41.4c0-.3.1-.5.3-.7s.4-.3.8-.3.6.1.8.3.3.4.3.7-.1.5-.3.7-.4.3-.8.3-.6-.1-.8-.3-.3-.4-.3-.7zm1.9 13.4h-1.8V44.2h1.8zM307.4 41.6v2.6h2v1.4h-2v6.6c0 .4.1.7.3 1 .2.2.5.3.9.3.2 0 .5 0 .9-.1v1.5c-.5.1-.9.2-1.4.2-.8 0-1.4-.2-1.8-.7s-.6-1.2-.6-2.1v-6.6h-1.9v-1.4h1.9v-2.6h1.7zM311.5 53.8c0-.3.1-.6.3-.8s.5-.3.8-.3.7.1.8.3.3.5.3.8-.1.6-.3.8-.5.3-.8.3-.6-.1-.8-.3-.3-.5-.3-.8zM314.6 43.2c0-.7.2-1.3.5-1.9s.8-1.1 1.3-1.4c.6-.3 1.2-.5 1.8-.5.7 0 1.3.2 1.8.5.6.3 1 .8 1.3 1.4s.5 1.2.5 1.9-.2 1.3-.5 1.9-.8 1.1-1.3 1.4c-.6.3-1.2.5-1.8.5-.7 0-1.3-.2-1.8-.5-.6-.3-1-.8-1.3-1.4s-.5-1.2-.5-1.9zm.6 0c0 .6.1 1.1.4 1.6s.6.9 1.1 1.2 1 .4 1.5.4c.6 0 1.1-.1 1.5-.4.5-.3.8-.7 1.1-1.2s.4-1 .4-1.6-.1-1.1-.4-1.6-.6-.9-1.1-1.2-1-.4-1.5-.4-1 .1-1.5.4-.8.7-1.1 1.2c-.2.5-.4 1-.4 1.6zm2.3.4v1.7h-.8V41h1.4c.5 0 .9.1 1.2.4.3.2.4.6.4 1s-.2.7-.5.9c.2.1.3.3.4.5s.1.4.1.7v.6s0 .2.1.3v.1h-.8c0-.1-.1-.4-.1-1 0-.3-.1-.4-.2-.6-.1-.1-.3-.2-.6-.2h-.6zm0-.7h.7c.3 0 .5-.1.6-.2.2-.1.3-.3.3-.4 0-.2-.1-.4-.2-.5s-.3-.2-.7-.2h-.7zM10.1 17.3c-3.2-.9-5.6-2.1-7-3.4s-2.2-3-2.2-5c0-2.2.9-4.1 2.7-5.6s4.1-2.2 7-2.2c2 0 3.7.4 5.2 1.1 1.5.8 2.7 1.8 3.6 3.1s1.3 2.8 1.3 4.4h-3.8c0-1.7-.5-3.1-1.6-4.1s-2.6-1.5-4.6-1.5c-1.8 0-3.3.4-4.3 1.2S4.7 7.4 4.7 8.9c0 1.2.5 2.1 1.5 2.9s2.7 1.5 5 2.2c2.4.7 4.2 1.4 5.5 2.2s2.3 1.7 3 2.8c.6 1.1 1 2.3 1 3.8 0 2.3-.9 4.2-2.7 5.5s-4.2 2.1-7.2 2.1c-2 0-3.8-.4-5.5-1.1s-3-1.8-3.9-3.1C.5 24.9 0 23.4 0 21.8h3.8c0 1.7.6 3.1 1.9 4.1s3 1.5 5.1 1.5c2 0 3.5-.4 4.6-1.2s1.6-1.9 1.6-3.3-.5-2.5-1.5-3.2-2.8-1.6-5.4-2.4zM28.4 8.9l.1 2.7c1.6-2 3.7-3 6.3-3 4.5 0 6.7 2.5 6.8 7.6v14H38V16c0-1.5-.4-2.6-1-3.4-.7-.7-1.7-1.1-3.2-1.1-1.2 0-2.2.3-3.1.9s-1.6 1.4-2.1 2.5V30H25V8.9zM55.1 30.4c-2.9 0-5.2-.9-7-2.8s-2.7-4.4-2.7-7.5v-.7c0-2.1.4-4 1.2-5.6s1.9-2.9 3.4-3.9c1.4-.9 3-1.4 4.7-1.4 2.7 0 4.9.9 6.4 2.7s2.3 4.4 2.3 7.8v1.5H49c.1 2.1.7 3.8 1.8 5 1.2 1.3 2.6 1.9 4.4 1.9 1.3 0 2.4-.3 3.2-.8.9-.5 1.7-1.2 2.3-2.1l2.2 1.7c-1.6 2.8-4.3 4.2-7.8 4.2zm-.4-19c-1.5 0-2.7.6-3.7 1.6-1 1.1-1.6 2.5-1.8 4.5h10.6v-.3c-.1-1.8-.6-3.3-1.5-4.3-.9-.9-2.1-1.5-3.6-1.5zM71.5 30h-3.6V0h3.6zM80.5 30h-3.6V0h3.6zM134.3 21l.5 3.8.8-3.4 5.6-19.8h3.2l5.5 19.8.8 3.4.6-3.8 4.4-19.5h3.8L152.6 30h-3.4l-5.9-20.7-.4-2.2-.4 2.2-6.2 20.7h-3.4L126 1.6h3.8zM162.9 3.3c0-.6.2-1.1.5-1.5.4-.4.9-.6 1.6-.6s1.2.2 1.6.6.5.9.5 1.5-.2 1.1-.5 1.5-.9.6-1.6.6-1.2-.2-1.6-.6-.5-1-.5-1.5zm3.9 26.7h-3.6V8.9h3.6zM175.8 30h-3.6V0h3.6zM184.5 8.9l.1 2.3c1.5-1.8 3.6-2.7 6.3-2.7 3 0 5 1.1 6 3.4.7-1 1.6-1.8 2.7-2.5s2.5-.9 4-.9c4.6 0 7 2.5 7.1 7.4V30h-3.6V16.1c0-1.5-.3-2.6-1-3.4-.7-.7-1.8-1.1-3.5-1.1-1.3 0-2.5.4-3.3 1.2s-1.4 1.9-1.5 3.2v14h-3.6V16.2c0-3.1-1.5-4.6-4.5-4.6-2.4 0-4 1-4.9 3V30h-3.6V8.9zM224.6 30.4c-2.9 0-5.2-.9-7-2.8s-2.7-4.4-2.7-7.5v-.7c0-2.1.4-4 1.2-5.6s1.9-2.9 3.4-3.9c1.4-.9 3-1.4 4.7-1.4 2.7 0 4.9.9 6.4 2.7s2.3 4.4 2.3 7.8v1.5h-14.3c.1 2.1.7 3.8 1.8 5 1.2 1.3 2.6 1.9 4.4 1.9 1.3 0 2.4-.3 3.2-.8.9-.5 1.7-1.2 2.3-2.1l2.2 1.7c-1.7 2.8-4.4 4.2-7.9 4.2zm-.5-19c-1.5 0-2.7.5-3.7 1.6s-1.6 2.5-1.8 4.5h10.6v-.3c-.1-1.8-.6-3.3-1.5-4.3-.9-.9-2.1-1.5-3.6-1.5zM247.1 12.1c-.5-.1-1.1-.1-1.8-.1-2.4 0-4 1-4.8 3v15h-3.6V8.9h3.5l.1 2.4c1.2-1.9 2.9-2.8 5-2.8.7 0 1.2.1 1.6.3z"/><path d="M93.8 22.4c0-1.4.4-2.6 1.1-3.8.8-1.1 2.2-2.5 4.4-4-1.3-1.5-2.1-2.8-2.5-3.7s-.7-1.9-.7-2.8c0-2.2.6-3.9 1.9-5.1s3-1.8 5.2-1.8c2 0 3.6.6 4.8 1.7 1.3 1.1 1.9 2.6 1.9 4.3 0 1.1-.3 2.2-.9 3.2s-1.6 2-3 3.1l-2 1.5 6.3 7.6c.9-1.7 1.3-3.6 1.3-5.6h3.3c0 3.3-.8 6.1-2.4 8.3l4.1 4.9h-4.3l-1.9-2.2c-1 .9-2.1 1.5-3.4 2s-2.6.7-4 .7c-2.8 0-5-.7-6.7-2.2-1.7-1.8-2.5-3.7-2.5-6.1zm9.2 5c1.9 0 3.7-.7 5.3-2.2l-6.9-8.3-.6.5c-2.2 1.6-3.3 3.2-3.3 4.9 0 1.5.5 2.8 1.5 3.7.9 1 2.3 1.4 4 1.4zM99.7 8c0 1.2.8 2.8 2.3 4.7l2.3-1.6c.9-.6 1.5-1.2 1.8-1.8s.5-1.3.5-2.1c0-.9-.3-1.6-1-2.2s-1.5-.9-2.5-.9c-1.1 0-1.9.4-2.5 1.1s-.9 1.7-.9 2.8z" fill="#741d38"/></svg>