<svg xmlns="http://www.w3.org/2000/svg" xmlns:xlink="http://www.w3.org/1999/xlink" width="261.556" height="257.523" viewBox="0 0 261.556 257.523"><defs><style>.a {
  fill: #08614a;
}

.b {
  fill: #fff;
  stroke: #fff;
  stroke-linecap: round;
}

.c {
  fill: #f4c063;
}

.d {
  fill: #076049;
  font-family: Poppins-Bold, Poppins;
  font-size: 35px;
  font-weight: 700;
}

.e {
  filter: url("#a");
}

</style><filter id="a" x="0" y="4" width="104" height="104" filterUnits="userSpaceOnUse"><feOffset dy="3" input="SourceAlpha"></feOffset><feGaussianBlur stdDeviation="3" result="b"></feGaussianBlur><feFlood flood-opacity="0.161"></feFlood><feComposite operator="in" in2="b"></feComposite><feComposite in="SourceGraphic"></feComposite></filter></defs><g transform="translate(-12 10)"><path class="a" d="M.571,124.369c-2.357,42.584,1.32,91.778,35.395,117.428,29.811,22.441,72.073,17.764,107.2,5.181,26.962-9.658,53.455-24.175,69.762-47.719,17.668-25.508,21.094-59.258,13.1-89.24s-26.471-56.4-48.91-77.828C146.187,2.645,100.55-12.38,62.369,12.672c-42.823,28.1-59,61.078-61.8,111.7" transform="translate(43.444 -10)"></path><g transform="translate(78 57.769)"><path class="b" d="M9.865,102.741c-2.126-2.5-4.518-5.247-6.744-7.758A24.226,24.226,0,0,0,6.186,79.067a25.139,25.139,0,0,0-.987-4.1q8.721-8.2,17.235-16.615C32.872,47.872,43.212,37.131,53.293,26.29c6.987-7.641,13.987-15.57,21.254-22.925a25.389,25.389,0,0,0,4.807,1.443l1.38.227,1.391.158,1.4.076,1.4.005a25.636,25.636,0,0,0,9.9-2.256c3.9,4.423,9.24,10.28,13.065,14.35,4.31,4.518,8.789,8.868,13.288,13.2A24.149,24.149,0,0,0,119,40.281a23.653,23.653,0,0,0,2.245,10.41c-2.75,3.119-5.57,6.393-8.164,9.612a.267.267,0,0,0,.375.375c.888-.709,1.76-1.435,2.634-2.16l2.6-2.195c.858-.74,1.721-1.475,2.571-2.222s1.706-1.49,2.551-2.243a1.237,1.237,0,0,0,.337-1.348A22.164,22.164,0,0,1,125.813,31.2a2.153,2.153,0,0,0-.355-2.674q-3.512-3.669-7.074-7.289-7.1-7.274-14.682-14.042L96.115.418,96,.315A1.244,1.244,0,0,0,94.493.2a20.6,20.6,0,0,1-4.6,2.241,20.719,20.719,0,0,1-15.214-.776.805.805,0,0,0-.9.166C67.76,7.8,61.47,13.493,55.175,19.183,49.059,24.7,42.5,30.861,36.612,36.576Q18.11,54.153.654,72.766a2.239,2.239,0,0,0-.372,2.519,20.87,20.87,0,0,1,1.629,4.581A21.937,21.937,0,0,1,.13,94.594a1.269,1.269,0,0,0,.3,1.51c.948.838,1.886,1.686,2.842,2.516,2.8,2.4,5.8,5.115,8.663,7.411a.267.267,0,0,0,.375-.375q-1.211-1.468-2.443-2.915" transform="translate(0)"></path><path class="b" d="M201.52,265.783a1.245,1.245,0,0,0-.959-1.253,22.416,22.416,0,0,1-13.585-9.346l-.715-1.117c-.425-.715-.952-1.782-1.335-2.484-25.339-1.648-51.012-2.082-76.425-2.17q-12.779-.018-25.558.422a1.876,1.876,0,0,0-1.708,1.264,21.447,21.447,0,0,1-9.275,11.445,21.128,21.128,0,0,1-4.648,2.07,1.172,1.172,0,0,0-.895,1.169c.136,4.521.3,10.711.348,15.233.1,8.141.076,17.248-.051,25.389a.9.9,0,0,0,.646.874,21.514,21.514,0,0,1,14.358,13.626,1.405,1.405,0,0,0,1.358.935c33.8,1.1,67.885,1.543,101.7,1.316a2.717,2.717,0,0,0,2.587-1.782,20.206,20.206,0,0,1,2.148-4.236,20.7,20.7,0,0,1,11.456-8.4,2.389,2.389,0,0,0,1.708-2.336c-.249-13.066-.638-27.573-1.153-40.623M182.98,317.6c-22.58-.213-45.544.165-68.124.475-10.218.176-20.636.5-30.848.827a24.641,24.641,0,0,0-15.477-13.2c-.038-2.679-.08-7.143-.094-9.45-.04-6.364.018-13.949.136-20.312l.117-5.078s.084-2.883.121-4.134a24.644,24.644,0,0,0,15.517-12.92c26.059.782,52.135.257,78.187-.62,5.9-.206,16.052-.831,22.109-1.167.12.414.229.8.354,1.173l.533,1.267.61,1.238a23.4,23.4,0,0,0,12.768,11c-.466,12.2-.845,25.586-1.083,37.857A24.8,24.8,0,0,0,194,306.187,25.542,25.542,0,0,0,182.98,317.6" transform="translate(-48.791 -183.227)"></path><path class="b" d="M319.254,73.126a154.569,154.569,0,0,0-16.927-19.241C295.3,47.1,287.909,40.556,279.6,35.355c5.38,8.2,12.084,15.446,19.018,22.323a154.54,154.54,0,0,0,19.6,16.506c1.017.7,2.049,1.385,3.127,2.024-.662-1.063-1.37-2.08-2.092-3.082" transform="translate(-205.402 -25.973)"></path><path class="b" d="M482.317,306.639a154.326,154.326,0,0,0,1.914,25.536c.211,1.216.443,2.432.74,3.648.3-1.216.528-2.432.74-3.648a154.293,154.293,0,0,0,1.914-25.536c-.065-9.759-.558-19.613-2.653-29.184-2.1,9.571-2.588,19.425-2.653,29.184" transform="translate(-354.326 -203.828)"></path><path class="b" d="M144.075,306.639a154.326,154.326,0,0,0,1.914,25.536c.211,1.216.443,2.432.74,3.648.3-1.216.528-2.432.74-3.648a154.3,154.3,0,0,0,1.914-25.536c-.065-9.759-.558-19.613-2.653-29.184-2.1,9.571-2.588,19.425-2.653,29.184" transform="translate(-105.842 -203.828)"></path></g><g class="e" transform="matrix(1, 0, 0, 1, 12, -10)"><circle class="c" cx="43" cy="43" r="43" transform="translate(9 10)"></circle></g><text class="d" transform="translate(67 55)"><tspan x="-6.58" y="0">1</tspan></text></g></svg>