<svg xmlns="http://www.w3.org/2000/svg" xmlns:xlink="http://www.w3.org/1999/xlink" width="261.556" height="263.523" viewBox="0 0 261.556 263.523"><defs><style>.a {
  fill: #08614a;
}

.b {
  fill: #fff;
  stroke: #fff;
  stroke-width: 2px;
}

.c {
  fill: #f4c063;
}

.d {
  fill: #076049;
  font-family: Poppins-Bold, Poppins;
  font-size: 35px;
  font-weight: 700;
}

.e {
  filter: url("#a");
}

</style><filter id="a" x="0" y="0" width="104" height="104" filterUnits="userSpaceOnUse"><feOffset dy="3" input="SourceAlpha"></feOffset><feGaussianBlur stdDeviation="3" result="b"></feGaussianBlur><feFlood flood-opacity="0.161"></feFlood><feComposite operator="in" in2="b"></feComposite><feComposite in="SourceGraphic"></feComposite></filter></defs><g transform="translate(-12 6)"><path class="a" d="M229.541,124.369c2.357,42.584-1.32,91.778-35.395,117.428-29.811,22.441-72.073,17.764-107.2,5.181C59.983,237.32,33.491,222.8,17.184,199.259-.484,173.751-3.91,140,4.08,110.018s26.471-56.4,48.91-77.828C83.925,2.645,129.561-12.38,167.742,12.672c42.823,28.1,59,61.078,61.8,111.7" transform="translate(43.444 0)"></path><g transform="translate(-4343.774 -1080.369)"><path class="b" d="M1632.273,1057.54l16.667,20.952c2.064,2.6,5.191,9.191,9.187,9.647,3.81.6,9.6-5.82,12.2-7.885,2.967-2.36,4.227-3.059,2.942-6.578-1.981-6.3-8.732-13.641-12.676-18.98-2.469-3.485-5.866-6.232-8.558-9.238-.885-1.113-2.027-2.928-3.468-3.6-4.029-1.639-7.371,2.532-10.337,4.893-3.523,2.8-8.007,5.158-7.392,10.117.291,1.888,3.215,1.379,2.925-.51-.472-3.258,4.383-5.908,6.238-7.383,5.933-4.72,9.772-1.416,14.016,2.777,6.237,5.937,10.249,13.645,15,20.763,3.17,4.745-5.057,8.867-7.8,10.746-4.969,3.649-7.539-3.389-10.047-6.54L1634.5,1055.77a1.422,1.422,0,0,0-2.225,1.77" transform="translate(2805 183.608)"></path><path class="b" d="M1662.109,1024.1c12.221-16.987,27.333-35.668,33.2-56.077.6-2.292.27-3.848.2-6.216a6.3,6.3,0,0,0-1.214-2.667c-1.913-3.928,5.239-7.5,8.02-9.71,4.859-4.168,25.785,28.231,28.883,32.124,7.446,10.123,15.225,20.283,22.672,30.406,4.829,6.451-3.22,13.46-9.352,9.557-1.108-.632-2.141-1.93-3.548-1.416-12.591,3.961-23.746,10.109-36.89,13-10.366,2.191-20.577,1.534-30.249,6.5-1.63.994-.417,3.662,1.214,2.667,12.562-6.662,28.394-5.027,41.69-9.245a145.345,145.345,0,0,0,19.225-7.421c5.521-2.575,6.326.721,11.319,1.29s10.784-5.853,12.571-9.7c.708-1.775-3.5-6.3-3.793-6.672-5.714-7.564-11.429-15.129-16.957-22.841-10.4-13.831-20.755-27.995-31.151-41.825-3.8-5.154-11.15,4.631-13.228,6.586-1.151,1.218-3.746,3.282-4.16,5.428-.114,1,.772,2.111.881,2.629,2.723,5.706-.4,10.915-2.634,15.719-7.78,16.481-18.774,31.584-29.213,46.245-.855,1.589,1.47,3.371,2.511,1.635" transform="translate(2797.76 208.162)"></path><path class="b" d="M1715.915,977.881c5.517,12.263,16.633,19.769,25.634,29.562,1.365,1.336,3.59-.434,2.41-1.917-8.521-9.571-19.676-16.743-25.23-28.673-.956-1.964-3.624-.75-2.815,1.028" transform="translate(2783.513 200.204)"></path><path class="b" d="M1699.291,1066.006a23.218,23.218,0,0,0,11.542,14.13c5.284,2.457,10.1,1.656,15.651.266,10.4-2.525,15.875-13.536,10.721-23.059-.995-1.631-3.662-.418-2.667,1.213a13.3,13.3,0,0,1-.185,13.468c-2.343,4.286-7.712,5.529-12.192,6.367-9.663,1.934-17.379-4.34-20.388-13.452-.291-1.888-3.106-.86-2.482,1.066" transform="translate(2787.701 179.796)"></path><path class="b" d="M1767.289,982.428c-.489,1.825,20.211,2.338,20.769,2.8.965.8,4.042,1.672,4.678-.17.551-3.693-24.671-5.521-25.447-2.629m12.116-23.86a68.393,68.393,0,0,1-9.544,5.6,72.859,72.859,0,0,0-8.2,4.721c-1.724,1.016.479,4.065,2.162,3.013,2.283-1.17,5.535-2.459,8.263-4.538,3.691-2.812,7.244-2.522,10.143-5.813,1.284-1.123.437-4.109-2.824-2.979m-25.134,3.362c-.772,1.538-2.714.1-2.437-1.7a83.673,83.673,0,0,1,2.516-8.9c1.081-3.595,3.692-11.121,5.469-10.208,1.907.978-.1,5.31-1.507,8.5-2.677,6.051-1.774,6.264-4.041,12.3" transform="translate(2774.4 209.002)"></path></g><g class="e" transform="matrix(1, 0, 0, 1, 12, -6)"><circle class="c" cx="43" cy="43" r="43" transform="translate(9 6)"></circle></g><text class="d" transform="translate(64 55)"><tspan x="-10.587" y="0">3</tspan></text></g></svg>