<svg xmlns="http://www.w3.org/2000/svg" width="261.556" height="257.523"><defs><filter id="step-1a" x="0" y="4" width="104" height="104" filterUnits="userSpaceOnUse"><feOffset dy="3"/><feGaussianBlur stdDeviation="3" result="b"/><feFlood flood-opacity=".161"/><feComposite operator="in" in2="b"/><feComposite in="SourceGraphic"/></filter><style>.b{fill:#fff;stroke:#fff;stroke-linecap:round}</style></defs><path d="M.571 124.369c-2.357 42.584 1.32 91.778 35.395 117.428 29.811 22.441 72.073 17.764 107.2 5.181 26.962-9.658 53.455-24.175 69.762-47.719 17.668-25.508 21.094-59.258 13.1-89.24s-26.471-56.4-48.91-77.828C146.187 2.645 100.55-12.38 62.369 12.672c-42.823 28.1-59 61.078-61.8 111.7" transform="translate(31.444)" style="fill:#08614a"/><path class="b" d="M75.865 170.51a516.052 516.052 0 0 0-6.744-7.758 24.226 24.226 0 0 0 3.065-15.916 25.139 25.139 0 0 0-.987-4.1q8.721-8.2 17.235-16.615a1300.609 1300.609 0 0 0 30.859-32.062c6.987-7.641 13.987-15.57 21.254-22.925a25.389 25.389 0 0 0 4.807 1.443l1.38.227 1.391.158 1.4.076 1.4.005a25.636 25.636 0 0 0 9.9-2.256c3.9 4.423 9.24 10.28 13.065 14.35 4.31 4.518 8.789 8.868 13.288 13.2A24.149 24.149 0 0 0 185 108.05a23.653 23.653 0 0 0 2.245 10.41c-2.75 3.119-5.57 6.393-8.164 9.612a.267.267 0 0 0 .375.375c.888-.709 1.76-1.435 2.634-2.16l2.6-2.195c.858-.74 1.721-1.475 2.571-2.222s1.706-1.49 2.551-2.243a1.237 1.237 0 0 0 .337-1.348 22.164 22.164 0 0 1 1.664-19.31 2.153 2.153 0 0 0-.355-2.674q-3.512-3.669-7.074-7.289-7.1-7.274-14.682-14.042l-7.587-6.777-.115-.103a1.244 1.244 0 0 0-1.507-.115 20.6 20.6 0 0 1-4.6 2.241 20.719 20.719 0 0 1-15.214-.776.805.805 0 0 0-.9.166c-6.019 5.969-12.309 11.662-18.604 17.352a718.152 718.152 0 0 0-18.563 17.393q-18.502 17.577-35.958 36.19a2.239 2.239 0 0 0-.372 2.519 20.87 20.87 0 0 1 1.629 4.581 21.937 21.937 0 0 1-1.781 14.728 1.269 1.269 0 0 0 .3 1.51c.948.838 1.886 1.686 2.842 2.516 2.8 2.4 5.8 5.115 8.663 7.411a.267.267 0 0 0 .375-.375q-1.211-1.468-2.443-2.915"/><path class="b" d="M218.729 150.325a1.245 1.245 0 0 0-.959-1.253 22.416 22.416 0 0 1-13.585-9.346l-.715-1.117c-.425-.715-.952-1.782-1.335-2.484-25.339-1.648-51.012-2.082-76.425-2.17q-12.779-.018-25.558.422a1.876 1.876 0 0 0-1.708 1.264 21.447 21.447 0 0 1-9.275 11.445 21.128 21.128 0 0 1-4.648 2.07 1.172 1.172 0 0 0-.895 1.169c.136 4.521.3 10.711.348 15.233a946.6 946.6 0 0 1-.051 25.389.9.9 0 0 0 .646.874 21.514 21.514 0 0 1 14.358 13.626 1.405 1.405 0 0 0 1.358.935c33.8 1.1 67.885 1.543 101.7 1.316a2.717 2.717 0 0 0 2.587-1.782 20.206 20.206 0 0 1 2.148-4.236 20.7 20.7 0 0 1 11.456-8.4 2.389 2.389 0 0 0 1.708-2.336c-.249-13.066-.638-27.573-1.153-40.623m-18.542 51.821c-22.58-.213-45.544.165-68.124.475-10.218.176-20.636.5-30.848.827a24.641 24.641 0 0 0-15.477-13.2c-.038-2.679-.08-7.143-.094-9.45-.04-6.364.018-13.949.136-20.312l.117-5.078.121-4.134a24.644 24.644 0 0 0 15.517-12.92c26.059.782 52.135.257 78.187-.62 5.9-.206 16.052-.831 22.109-1.167.12.414.229.8.354 1.173l.533 1.267.61 1.238a23.4 23.4 0 0 0 12.768 11c-.466 12.2-.845 25.586-1.083 37.857a24.8 24.8 0 0 0-3.806 1.631 25.542 25.542 0 0 0-11.02 11.413M179.852 114.922a154.569 154.569 0 0 0-16.927-19.241c-7.027-6.785-14.418-13.329-22.727-18.53 5.38 8.2 12.084 15.446 19.018 22.323a154.54 154.54 0 0 0 19.6 16.506c1.017.7 2.049 1.385 3.127 2.024a55.14 55.14 0 0 0-2.092-3.082"/><path class="b" d="M193.991 170.58a154.326 154.326 0 0 0 1.914 25.536c.211 1.216.443 2.432.74 3.648.3-1.216.528-2.432.74-3.648a154.293 154.293 0 0 0 1.914-25.536c-.065-9.759-.558-19.613-2.653-29.184-2.1 9.571-2.588 19.425-2.653 29.184M104.233 170.58a154.326 154.326 0 0 0 1.914 25.536c.211 1.216.443 2.432.74 3.648.3-1.216.528-2.432.74-3.648a154.3 154.3 0 0 0 1.914-25.536c-.065-9.759-.558-19.613-2.653-29.184-2.1 9.571-2.588 19.425-2.653 29.184"/><g style="filter:url(#step-1a)"><circle cx="43" cy="43" r="43" transform="translate(9 10)" style="fill:#f4c063"/></g><text transform="translate(55 65)" style="fill:#076049;font-family:Poppins-Bold,Poppins;font-size:35px;font-weight:700"><tspan x="-6.58" y="0">1</tspan></text></svg>