<svg xmlns="http://www.w3.org/2000/svg" width="328.044" height="338.077"><defs><clipPath id="a"><path style="fill:none" d="M0 0h171.186v126.708H0z"/></clipPath><filter id="b" x="17.522" y="44" width="104" height="104" filterUnits="userSpaceOnUse"><feOffset dy="3"/><feGaussianBlur stdDeviation="3" result="c"/><feFlood flood-opacity=".161"/><feComposite operator="in" in2="c"/><feComposite in="SourceGraphic"/></filter><style>.d{fill:#fff}</style></defs><path d="M.571 124.369c-2.357 42.584 1.32 91.778 35.395 117.428 29.811 22.441 72.073 17.764 107.2 5.181 26.962-9.658 53.455-24.175 69.762-47.719 17.668-25.508 21.094-59.258 13.1-89.24s-26.471-56.4-48.91-77.828C146.187 2.645 100.55-12.38 62.369 12.672c-42.823 28.1-59 61.078-61.8 111.7" transform="rotate(-30 214.7 57.528)" style="fill:#08614a"/><g style="-webkit-clip-path:url(#a);clip-path:url(#a)" transform="translate(84.336 122.646)"><path class="d" d="M37.726 122.247a22.827 22.827 0 0 0 4.965-7.566c1.058-2.274 1.962-4.623 3.043-6.886 1.634-3.421 3.885-6 8.175-5.726a9.047 9.047 0 0 0 2.642-.453c4-.989 7.955-2.207 12-2.944 3.011-.55 30.141-7.68 33.022-8.57a25.651 25.651 0 0 0 4.621-2.5c1.69-4.263.977-8.367-.149-12.313-1.821-6.387-5.213-16.606-5.965-23.231a27.813 27.813 0 0 0-1.217-4.591c-.656-2.226-1.351-4.44-2.253-7.389L94 36.717c-1.5-.6-3.123-1.371-4.825-1.91a7.149 7.149 0 0 0-3.678-.555c-3.287.9-6.746.32-10.021 1.628-2.622 1.047-5.565 1.278-8.353 1.925-2.618.607-5.2 1.4-7.835 1.9-2.442.457-4.939.624-8.485 1.047a10.955 10.955 0 0 1-6.049 1.7 4.683 4.683 0 0 0-2.091.457c-6.423 2.912-13.375 4-20.089 5.912-4.3 1.224-8.526 2.724-12.738 4.232-3.266 1.171-4.534 3.967-4.993 7.113a41.078 41.078 0 0 0 .635 17.077c2.062 7.438 5.808 25.809 7.941 30.346s8.477 1.171 11.472.424a9.078 9.078 0 0 1 4.775 2.7c2.841 2.951 4.12 9.728 8.058 11.537Zm-26.213-10.661c-1.121-2.6-6.938-15.5-7.158-21.137a49.083 49.083 0 0 0-1.22-8.49C2.6 79.527 1.488 77.227.946 74.791-.825 66.833-.239 59.127 3.81 51.972a22.91 22.91 0 0 1 11.554-5.545 92.554 92.554 0 0 0 10.418-2.454c7.669-2.324 15.306-4.741 23.171-6.342 2.458-.5 4.967-.788 7.392-1.41 4.842-1.245 9.629-2.679 14.667-3.014a9.537 9.537 0 0 0 4.131-1.07c3.092-1.839 6.54-1.637 9.869-2.212 6.934-1.2 14.009 3.717 15.907 9.95a84.539 84.539 0 0 1 3.168 14.04c.669 5.3 4.051 14.18 5.16 19.371.074.346.053.786.26 1.017 1.839 2.052 1.685 4.675 2.022 7.124.811 5.907-.857 9.3-6.191 11.749a46.63 46.63 0 0 1-10.12 3.484c-6.259 1.258-36.706 9.375-43.2 9.147-2.269 2.409-2.874 5.509-4.27 8.183-1.74 3.336-3.451 6.686-5.254 9.987a5.241 5.241 0 0 1-4.925 2.732 19.518 19.518 0 0 1-3.062-.475c-3.486-3.857-5.317-11.265-9.218-13.977-4.5.121-12.654 1.933-13.776-.671"/><path class="d" d="M133.457 92.505c3.938-1.809 5.217-8.586 8.058-11.537a9.078 9.078 0 0 1 4.775-2.7c3 .747 9.341 4.112 11.472-.424s5.879-22.908 7.941-30.346a41.078 41.078 0 0 0 .635-17.077c-.459-3.146-1.727-5.942-4.993-7.113-4.212-1.508-8.439-3.008-12.738-4.232-6.714-1.912-13.666-3-20.089-5.912a4.683 4.683 0 0 0-2.091-.457 10.955 10.955 0 0 1-6.048-1.7c-3.546-.424-6.044-.59-8.485-1.047-2.637-.494-5.217-1.29-7.835-1.9-2.788-.647-5.731-.877-8.353-1.925-3.275-1.308-6.734-.724-10.021-1.628a7.149 7.149 0 0 0-3.678.555c-1.7.539-3.329 1.307-4.825 1.91l-2.607 3.363c-.9 2.949-1.6 5.163-2.253 7.389a27.817 27.817 0 0 0-1.217 4.591c-.752 6.625-4.144 16.844-5.965 23.231-1.126 3.946-1.839 8.051-.149 12.313a25.652 25.652 0 0 0 4.621 2.5c2.881.889 30.011 8.02 33.022 8.57 4.045.737 8 1.955 12 2.944a9.048 9.048 0 0 0 2.642.453c4.29-.276 6.541 2.3 8.175 5.726 1.081 2.263 1.985 4.612 3.043 6.886a22.827 22.827 0 0 0 4.965 7.566Zm26.215-10.661c-1.121 2.6-9.275.792-13.776.671-3.9 2.712-5.733 10.12-9.218 13.977a19.516 19.516 0 0 1-3.062.475 5.241 5.241 0 0 1-4.925-2.732c-1.8-3.3-3.515-6.651-5.254-9.987-1.4-2.675-2-5.775-4.27-8.183-6.493.228-36.941-7.889-43.2-9.147a46.63 46.63 0 0 1-10.12-3.484c-5.334-2.452-7-5.842-6.191-11.749.337-2.449.183-5.072 2.022-7.124.207-.231.185-.672.26-1.017 1.109-5.191 4.492-14.072 5.16-19.371a84.525 84.525 0 0 1 3.168-14.04c1.9-6.233 8.973-11.147 15.907-9.95 3.329.575 6.777.373 9.869 2.212a9.538 9.538 0 0 0 4.131 1.07c5.038.335 9.825 1.769 14.667 3.014 2.425.623 4.934.91 7.392 1.41 7.865 1.6 15.5 4.018 23.171 6.342a92.556 92.556 0 0 0 10.418 2.454 22.91 22.91 0 0 1 11.554 5.548c4.049 7.158 4.635 14.86 2.864 22.818-.542 2.431-1.657 4.736-2.19 7.169a49.079 49.079 0 0 0-1.22 8.49c-.219 5.64-6.037 18.533-7.158 21.137"/></g><g style="filter:url(#b)"><circle cx="43" cy="43" r="43" transform="translate(26.522 50)" style="fill:#f4c063"/></g><text transform="translate(71.522 105)" style="fill:#076049;font-family:Poppins-Bold,Poppins;font-size:35px;font-weight:700"><tspan x="-9.993" y="0">2</tspan></text></svg>