<svg width="275" height="52" xmlns="http://www.w3.org/2000/svg"><g fill="none" fill-rule="evenodd"><path fill="#fefefe" d="M26.5 0l-2.214 6.914L17 6.875l5.917 4.235L20.629 18l5.871-4.297L32.371 18l-2.288-6.89L36 6.875l-7.285.039zm17 13l2.215 6.914L53 19.875l-5.916 4.235L49.37 31l-5.87-4.297L37.628 31l2.288-6.89L34 19.875l7.285.039zM7.286 19.914L0 19.876l5.917 4.234L3.629 31 9.5 26.703 15.371 31l-2.288-6.89L19 19.876l-7.285.038L9.5 13zm6.999 21L7 40.876l5.917 4.234L10.629 52l5.871-4.297L22.371 52l-2.288-6.89L26 40.876l-7.285.038L16.5 34z"/><path fill="#fefefe" d="M35.285 40.914L28 40.876l5.917 4.234L31.629 52l5.871-4.297L43.371 52l-2.287-6.89L47 40.876l-7.285.038L37.5 34z"/><path fill="#0e0e0e" d="M63 38h212v-3H63zm8.133-14.81c-.006.017-.044.026-.114.026l-4.657-.035v2.407l4.134-.053c.151 0 .227.07.227.212.023.378.035.767.035 1.168 0 .39-.012.797-.035 1.222-.012.13-.093.195-.245.195l-4.116-.035v3.896a.489.489 0 01-.027.194c-.017.036-.06.053-.13.053h-2.839c-.058 0-.095-.008-.113-.026-.017-.018-.026-.091-.026-.22V20.696c0-.106.009-.17.026-.194.018-.024.055-.036.113-.036h7.653c.07 0 .108.012.114.036l.026.14c.023.376.038.785.043 1.225.006.44-.008.831-.043 1.172-.012.082-.02.132-.026.15m10.664 9.225c-.017.018-.066.026-.148.026h-2.894a.536.536 0 01-.14-.009c-.011-.005-.017-.055-.017-.15V20.626c0-.094.006-.144.017-.15a.562.562 0 01.14-.009h2.894c.082 0 .13.01.148.027.018.018.026.062.026.132v11.655c0 .071-.008.115-.026.133m17.871-9.394a239.75 239.75 0 01-.89 1.933 1540.997 1540.997 0 00-1.648 3.55c-.28.601-.57 1.228-.872 1.881-.302.654-.634 1.37-.995 2.146-.081.165-.168.248-.261.248-.082 0-.157-.071-.227-.212-.488-.978-.962-1.922-1.421-2.835a199.64 199.64 0 01-1.37-2.773 292.49 292.49 0 01-2.913-6.173c-.07-.141-.102-.23-.096-.265.006-.035.067-.052.183-.052h2.965c.082 0 .149.008.201.026.052.018.09.056.113.115.093.247.224.577.393.989a4946.003 4946.003 0 001.151 2.808c.204.494.39.942.558 1.342.169.4.358.854.568 1.36a236.484 236.484 0 001.029-2.675 713.66 713.66 0 001.046-2.773c.152-.407.268-.733.35-.98.046-.142.162-.212.348-.212h2.704c.116 0 .18.014.192.044.012.03-.018.12-.087.273-.372.813-.713 1.558-1.02 2.235m16.606 9.376c-.017.03-.073.044-.166.044h-7.971c-.094 0-.149-.014-.166-.044-.018-.03-.026-.097-.026-.203V20.644c0-.082.003-.132.008-.15.006-.018.055-.027.149-.027h7.885c.092 0 .148.012.165.036.017.023.026.088.026.194v2.152c0 .165-.064.247-.191.247l-4.99-.053v1.993h4.885c.081 0 .13.015.148.044.017.03.026.097.026.203v2.158a.484.484 0 01-.026.203c-.018.03-.067.044-.148.044h-4.885v2.046l5.111-.053c.093 0 .149.009.166.026.018.018.026.086.026.204v2.282a.486.486 0 01-.026.203m25.635-1.806a3.455 3.455 0 01-1.065 1.22 4.7 4.7 0 01-1.572.707c-.6.153-1.243.23-1.93.23-1.2 0-2.165-.233-2.899-.7-.734-.465-1.252-1.135-1.554-2.007-.059-.177-.035-.288.07-.336l2.15-.883c.081-.023.128-.032.14-.026.011.006.029.044.052.114.047.166.134.334.262.504.129.17.283.324.464.46.18.135.387.246.62.335.233.088.49.132.77.132 1.176 0 1.765-.394 1.765-1.183a1.07 1.07 0 00-.454-.892c-.303-.229-.857-.39-1.66-.485a1.658 1.658 0 00-.21-.027 1.638 1.638 0 01-.21-.026 5.122 5.122 0 01-1.451-.336 3.506 3.506 0 01-1.136-.715 3.11 3.11 0 01-.734-1.086c-.175-.424-.262-.912-.262-1.465 0-.577.095-1.104.287-1.58.191-.477.481-.887.87-1.228.389-.341.874-.609 1.454-.803.581-.195 1.255-.292 2.023-.292 1.163 0 2.096.247 2.8.74.703.493 1.172 1.11 1.404 1.85.023.094.023.161 0 .202a.234.234 0 01-.122.098l-2.041.83c-.105.047-.174.023-.21-.071a1.711 1.711 0 00-.278-.512 2.547 2.547 0 00-.454-.45 2.128 2.128 0 00-.576-.318 1.86 1.86 0 00-.645-.115c-.617 0-1.038.103-1.265.31-.227.206-.34.473-.34.804 0 .412.172.719.516.919.344.2.912.365 1.704.495.082.012.17.023.263.035.093.012.198.03.315.053 1.13.165 2.002.551 2.614 1.158.611.607.918 1.464.918 2.572 0 .684-.131 1.273-.393 1.768m16.258-7.543l-2.983-.035v9.27c0 .07-.009.114-.026.132-.018.018-.061.026-.13.026h-2.879a.672.672 0 01-.157-.008c-.012-.006-.018-.056-.018-.15v-9.275l-3.07.036c-.058 0-.093-.006-.104-.018-.012-.011-.018-.047-.018-.106v-2.275a.36.36 0 01.018-.141c.011-.024.052-.036.122-.036h9.228c.093 0 .14.06.14.177v2.28c0 .082-.041.123-.123.123m11.042 2.693l-1.185 2.684h2.424l-1.238-2.685zm6.42 6.665c-.011.023-.058.035-.14.035h-3.262a.268.268 0 01-.122-.026c-.035-.018-.063-.056-.087-.115a19.918 19.918 0 01-.331-.797 49.781 49.781 0 00-.314-.779h-4.222c-.105.248-.21.51-.314.788-.105.278-.203.522-.296.734a.325.325 0 01-.088.151c-.035.03-.11.044-.226.044h-2.896c-.128 0-.157-.082-.087-.247.302-.647.628-1.339.976-2.074.35-.735.704-1.48 1.065-2.233a321.371 321.371 0 013.096-6.275c.297-.582.561-1.091.794-1.527.011-.03.081-.046.21-.046.127 0 .197.015.209.046a594.06 594.06 0 012.861 5.772c.523 1.071 1.052 2.151 1.587 3.24.535 1.088 1.04 2.12 1.518 3.097.058.118.08.189.07.212zm13.083-8.833c-.237-.312-.61-.468-1.12-.468h-1.72v3.457l1.737-.053c.475-.024.837-.194 1.086-.512.249-.317.373-.734.373-1.252 0-.47-.119-.86-.356-1.172m4.64 8.763c-.017.07-.072.105-.165.105h-3.083a.279.279 0 01-.175-.053c-.046-.035-.11-.135-.191-.3a56.917 56.917 0 00-.54-.978 35.26 35.26 0 00-.61-1.04c-.196-.323-.435-.708-.713-1.155l-2.002.036v3.332c0 .07-.009.114-.026.132-.018.018-.056.026-.113.026h-2.856a.427.427 0 01-.122-.009c-.012-.005-.018-.055-.018-.15V20.626c0-.094.018-.144.053-.15a.537.537 0 01.087-.008h5.397c.673 0 1.265.108 1.776.326.51.218.94.512 1.289.883.348.37.609.8.783 1.29.174.488.261 1.003.261 1.544 0 .813-.136 1.498-.409 2.058a2.57 2.57 0 01-1.21 1.227c.116.177.261.418.435.724s.369.645.584 1.015c.214.371.444.766.688 1.184.244.418.494.832.75 1.244.104.177.148.3.13.372m23.391-4.584a1.121 1.121 0 00-.863-.37h-2.513v2.591h2.513c.371 0 .665-.111.88-.335.215-.223.323-.54.323-.951 0-.377-.113-.688-.34-.935m-1.05-4.815h-2.326v2.268h2.327c.358 0 .633-.1.824-.3.191-.202.287-.48.287-.834 0-.756-.37-1.134-1.111-1.134m3.738 8.613c-.587.594-1.404.891-2.45.891h-6.577c-.07 0-.114-.011-.131-.035-.017-.023-.026-.094-.026-.212v-11.55c0-.117.07-.175.209-.175h6.096c1.08 0 1.922.274 2.526.821.604.549.906 1.324.906 2.326 0 .648-.178 1.202-.533 1.661-.356.46-.877.79-1.564.99.372.036.71.144 1.012.327.302.182.558.408.767.679a3 3 0 01.48.9c.11.329.166.67.166 1.023 0 .976-.294 1.76-.881 2.354m13.241-5.809l-1.187 2.684h2.425l-1.238-2.685zm6.419 6.665c-.012.023-.058.035-.14.035h-3.262a.268.268 0 01-.122-.026c-.035-.018-.064-.056-.087-.115a19.918 19.918 0 01-.331-.797 49.772 49.772 0 00-.314-.779h-4.222c-.105.248-.21.51-.314.788-.105.278-.204.522-.297.734a.325.325 0 01-.087.151c-.035.03-.11.044-.227.044h-2.895c-.128 0-.157-.082-.087-.247a346 346 0 01.976-2.074c.35-.735.704-1.48 1.064-2.233.36-.753.724-1.503 1.09-2.25a377.076 377.076 0 012.006-4.025c.298-.582.562-1.091.794-1.527.012-.03.082-.046.21-.046s.197.015.21.046c.395.789.84 1.68 1.334 2.674.494.995 1.003 2.027 1.526 3.098l1.587 3.24c.535 1.088 1.041 2.12 1.518 3.097.058.118.082.189.07.212zm16.997.357c-.035.024-.087.003-.157-.061-.443-.327-.915-.7-1.416-1.117a138.896 138.896 0 01-4.185-3.638c-.355-.324-.743-.68-1.162-1.069v5.404c0 .083-.006.13-.018.142-.011.012-.058.017-.139.017h-2.622c-.058 0-.102-.02-.13-.061a.205.205 0 01-.044-.115c-.02-1.13-.033-2.17-.038-3.118a497.885 497.885 0 010-5.653c.005-.972.018-2.04.038-3.206 0-.07.015-.118.045-.142.035-.035.082-.03.14.016.42.306.877.66 1.372 1.06.495.401.993.816 1.494 1.246a124.25 124.25 0 013.915 3.509v-5.303c0-.094.005-.153.017-.176.012-.024.052-.036.122-.036h2.64c.092 0 .144.012.156.036a.523.523 0 01.017.176l.03 2.793a300.973 300.973 0 010 6.15l-.03 2.916c0 .142-.015.218-.045.23m18.811-.366c-.029.03-.084.044-.166.044h-3.157c-.07 0-.11-.011-.122-.035a3.169 3.169 0 00-.105-.177c-.105-.211-.25-.491-.436-.838a58.37 58.37 0 01-.567-1.086 58.55 58.55 0 00-.567-1.087 46.934 46.934 0 01-.436-.83 3.976 3.976 0 00-.174-.327l-1.43 2.05v2.171c0 .071-.01.115-.027.133-.018.018-.06.026-.13.026h-2.822a.546.546 0 01-.14-.008c-.01-.006-.016-.056-.016-.15V20.626c0-.095.005-.145.017-.15a.56.56 0 01.14-.01h2.82c.07 0 .113.01.13.027.018.018.027.062.027.132v5.298c.011-.023.099-.159.262-.406.162-.247.38-.585.654-1.015.273-.43.561-.88.863-1.35.303-.471.6-.94.89-1.404.29-.465.53-.856.715-1.174a.263.263 0 01.21-.108h3.157c.163 0 .198.071.105.212-.233.318-.503.692-.811 1.122a711.586 711.586 0 00-2.66 3.734c.011.024.104.192.278.504l.716 1.28c.302.542.616 1.107.941 1.696.326.588.652 1.168.978 1.74l.82 1.438c.058.106.072.174.043.203"/></g></svg>