<svg xmlns="http://www.w3.org/2000/svg" xmlns:xlink="http://www.w3.org/1999/xlink" width="960" height="274.138" viewBox="0 0 960 274.138"><defs><clipPath id="a"><rect width="960" height="274.138" fill="none"/></clipPath></defs><g clip-path="url(#a)"><path d="M1.5,262.19H141.931V206.328s38.793-27.931,72.931,0V166.759H239.69V117.879H245.9V106.241h20.172v9.31h13.19v50.431h6.983V139.6h9.31V129.517l16.293-8.534,10.086,6.207L339,113.224l23.276,17.845V155.9l17.845,10.862v17.455h11.638V70.552l19.4-38.017,35.69,11.638,15.517,37.241v79.914h11.572V147.362s14.807-10.086,24.893,0v17.845h13.965V151.241l22.5-7.759V64.345L561.672,1.5,595.81,18.569l18.621,54.31v96.983h20.948v35.69h9.31v-22.5h30.259v8.534h8.534v-54.31H702.1s12.414-11.638,24.828,0H740.9v56.638h7.759V169.862H763.4V118.655H769.6V98.483h8.534l13.19-14.741h13.966V97.707h7.759V265.293h138.1" transform="translate(3.672 3.672)" fill="none" stroke="#fff" stroke-linecap="round" stroke-linejoin="round" stroke-width="3"/></g></svg>