<svg xmlns="http://www.w3.org/2000/svg" width="1806.149" height="301.892" viewBox="0 0 1806.149 301.892">
  <g id="Icons" transform="translate(-2805 -1150.049)">
    <path id="Chat_Icon" data-name="Chat Icon" d="M1920.481,1077.345c5.659-2.434,7.5-11.556,11.579-15.528a13.3,13.3,0,0,1,6.862-3.634c4.3,1.005,13.423,5.534,16.486-.571s8.448-30.832,11.411-40.843c2.239-7.564,2.114-15.289.913-22.984-.659-4.234-2.481-8-7.175-9.573-6.053-2.03-12.127-4.049-18.305-5.7-9.648-2.574-19.639-4.037-28.869-7.956a7.112,7.112,0,0,0-3.005-.615,16.523,16.523,0,0,1-8.692-2.288c-5.1-.57-8.685-.794-12.194-1.41-3.79-.665-7.5-1.736-11.259-2.554-4.007-.871-8.236-1.181-12-2.591-4.706-1.761-9.677-.974-14.4-2.192-1.578-.406-3.588.244-5.286.747-2.445.726-4.784,1.759-6.933,2.571l-3.747,4.526c-1.3,3.969-2.3,6.949-3.237,9.945a35.553,35.553,0,0,0-1.749,6.18c-1.081,8.917-5.955,22.67-8.572,31.267-1.618,5.311-2.642,10.835-.214,16.573,2.144,1.117,4.25,2.67,6.641,3.362,4.14,1.2,43.127,10.794,47.454,11.534,5.813.992,11.5,2.632,17.245,3.963a13.8,13.8,0,0,0,3.8.61c6.165-.371,9.4,3.1,11.748,7.706,1.554,3.046,2.852,6.207,4.373,9.268,1.828,3.693,3.809,7.316,7.135,10.184Zm37.672-14.35c-1.611,3.5-13.328,1.066-19.8.9-5.607,3.65-8.238,13.621-13.247,18.811a29.808,29.808,0,0,1-4.4.639c-3.029.011-5.585-1.118-7.077-3.677-2.592-4.443-5.051-8.952-7.551-13.442-2.006-3.6-2.875-7.773-6.136-11.014-9.331.306-53.085-10.618-62.079-12.312a70.12,70.12,0,0,1-14.543-4.689c-7.665-3.3-10.063-7.864-8.9-15.813.484-3.3.263-6.827,2.906-9.588.3-.311.266-.9.373-1.369,1.594-6.986,6.455-18.94,7.416-26.072a107.663,107.663,0,0,1,4.552-18.9c2.727-8.389,12.894-15,22.859-13.391,4.784.774,9.738.5,14.182,2.977a14.443,14.443,0,0,0,5.936,1.44c7.24.451,14.119,2.381,21.077,4.056,3.485.838,7.09,1.224,10.623,1.9,11.3,2.154,22.278,5.408,33.3,8.535a140.675,140.675,0,0,0,14.971,3.3,33.888,33.888,0,0,1,16.6,7.466c5.818,9.635,6.661,20,4.116,30.712-.779,3.272-2.382,6.374-3.147,9.649a62.155,62.155,0,0,0-1.753,11.426c-.315,7.591-8.675,24.943-10.286,28.448" transform="translate(2636.45 359.002)" fill="#fff"/>
    <g id="Megaphone_Icon" data-name="Megaphone Icon" transform="translate(4267.225 1150.049)">
      <path id="Path_1498" data-name="Path 1498" d="M1632.78,1062.972l22.306,28.042c2.763,3.475,6.948,12.3,12.295,12.911,5.1.806,12.848-7.789,16.322-10.553,3.971-3.158,5.657-4.094,3.937-8.8-2.651-8.426-11.686-18.257-16.965-25.4-3.305-4.664-7.851-8.341-11.454-12.363-1.185-1.489-2.713-3.919-4.642-4.816-5.392-2.194-9.865,3.389-13.835,6.548-4.715,3.75-10.716,6.9-9.893,13.541.389,2.527,4.3,1.845,3.914-.682-.631-4.36,5.866-7.907,8.348-9.881,7.941-6.317,13.079-1.9,18.758,3.717,8.347,7.946,13.717,18.262,20.078,27.788,4.242,6.351-6.768,11.867-10.439,14.382-6.65,4.884-10.09-4.535-13.446-8.753l-22.306-28.043a1.9,1.9,0,0,0-2.978,2.369" transform="translate(-1630.775 -949.883)" fill="#fff"/>
      <path id="Path_1499" data-name="Path 1499" d="M1663.022,1043.892c16.356-21.205,36.582-44.525,44.433-70,.8-2.862.361-4.8.271-7.759a7.628,7.628,0,0,0-1.625-3.33c-2.56-4.9,7.011-9.359,10.734-12.121,6.5-5.2,34.51,35.241,38.656,40.1,9.965,12.636,20.377,25.319,30.343,37.956,6.463,8.053-4.31,16.8-12.516,11.93-1.483-.789-2.865-2.409-4.749-1.768-16.852,4.944-31.781,12.62-49.373,16.223-13.874,2.736-27.54,1.915-40.484,8.116-2.182,1.241-.558,4.571,1.625,3.33,16.813-8.316,38-6.275,55.8-11.541a203.258,203.258,0,0,0,25.73-9.264c7.389-3.214,8.466.9,15.149,1.61s14.433-7.307,16.825-12.1c.947-2.215-4.681-7.865-5.076-8.328-7.648-9.443-15.3-18.886-22.695-28.512-13.914-17.265-27.777-34.946-41.691-52.21-5.081-6.434-14.923,5.781-17.7,8.222-1.54,1.52-5.014,4.1-5.567,6.775-.152,1.247,1.033,2.636,1.179,3.282,3.644,7.123-.536,13.625-3.525,19.622-10.412,20.574-25.127,39.427-39.1,57.728-1.145,1.983,1.968,4.208,3.361,2.041" transform="translate(-1630.775 -941.047)" fill="#fff"/>
      <path id="Path_1500" data-name="Path 1500" d="M1715.966,978.57c7.383,16.413,22.261,26.458,34.308,39.565,1.826,1.788,4.8-.581,3.226-2.566-11.405-12.809-26.333-22.408-33.767-38.375-1.28-2.628-4.85-1-3.767,1.376" transform="translate(-1630.775 -943.609)" fill="#fff"/>
      <path id="Path_1501" data-name="Path 1501" d="M1699.321,1069.2a31.075,31.075,0,0,0,15.448,18.911c7.072,3.288,13.513,2.217,20.947.356,13.925-3.379,21.246-18.116,14.348-30.862-1.331-2.183-4.9-.559-3.57,1.624a17.8,17.8,0,0,1-.248,18.025c-3.136,5.736-10.321,7.4-16.317,8.522-12.932,2.589-23.259-5.809-27.286-18-.389-2.527-4.157-1.151-3.322,1.427" transform="translate(-1630.775 -949.883)" fill="#fff"/>
      <path id="Path_1502" data-name="Path 1502" d="M1772.527,996.43c-.654,2.442,27.049,3.129,27.8,3.746,1.292,1.069,5.409,2.237,6.261-.228.738-4.942-33.019-7.389-34.057-3.518m16.216-31.934a91.538,91.538,0,0,1-12.774,7.491,97.51,97.51,0,0,0-10.974,6.318c-2.307,1.36.641,5.441,2.894,4.032,3.056-1.566,7.408-3.291,11.059-6.074,4.94-3.764,9.695-3.376,13.575-7.78,1.719-1.5.585-5.5-3.78-3.987M1755.1,969c-1.034,2.058-3.632.138-3.261-2.274.475-3.072,2.1-7.7,3.367-11.911,1.447-4.811,4.941-14.884,7.319-13.662,2.552,1.309-.128,7.107-2.017,11.38-3.583,8.1-2.374,8.383-5.408,16.467" transform="translate(-1630.775 -941.047)" fill="#fff"/>
    </g>
    <path id="Mug_Icon" data-name="Mug Icon" d="M1598,1047.17c-5.588,6.378-11.858,11.933-21.951,11.818,7.317-2.9,14.175-6.017,19.975-11.259,4.915-4.442,6.326-9.776,7.718-15.346,1.093-4.371,1.893-8.671-1.552-12.549-4.882-5.5-11.482-4.256-17.934-3.619h0a30.59,30.59,0,0,0-4.383,1.077l-.4-1.143c3.067-.895,6.1-2.345,9.207-2.58,9.742-.74,15.652.778,16.879,8.226a29.427,29.427,0,0,1-.8,13.462,30.8,30.8,0,0,1-6.759,11.913Zm-31.01,8.992a59.06,59.06,0,0,1-7.723-.731c1.472-2.965,2.661-5.452,3.934-7.9,3.484-6.708,7.179-13.335,10.438-20.126,1.754-3.656,4.046-6.343,8.483-7.036,1.95-.3,3.916-.509,5.878-.729,12.327-1.385,12.569,5.672,11.267,13.492-1.147,6.883-5.387,11.617-10.938,15.538a39.555,39.555,0,0,1-21.338,7.5Zm-.082-27.053c-4.007,7.86-7.647,15.9-12.238,23.481-3.921,6.473-5.718,13.814-10.826,19.793h0a12.279,12.279,0,0,1-10.236,4.885c-11.028.271-20.857-3.046-30.836-6.122-5.876-1.812-11.618-3.966-17.417-5.97-3.915-1.353-8.251-1.773-10.388-6.084-.794-1.6-3.958-2.171-5.986-3.9h0a62.186,62.186,0,0,0,6.771,1.133,17.77,17.77,0,0,0,4.278-.765,10.869,10.869,0,0,0-2.816-2.7c-4.434-1.88-9-3.5-13.449-5.194.075-.021,1.034-.63,1.666-.43,1.973.626,3.765,1.709,5.747,2.3.873.263,2.036-.226,3.067-.374-.427-.849-.6-2.084-1.328-2.48-2.6-1.409-5.384-2.532-8.154-3.787,4.265-3.013,7.61,3.528,13.136.494l-12.047-5.778c.635-1.96,1.208-2.029,3.869-.421a26.24,26.24,0,0,0,4.381,1.687l1.008-1.593-8.272-5.993.333-.767,8.642,2.15.848-1.365c-1.975-1.242-4.043-2.384-5.894-3.766h0a29.866,29.866,0,0,1-3.329-3.358l1.34-1.274,6.525,4.086c1.925-1.116,2.535-2.425.1-3.962h0a29.515,29.515,0,0,1-4.326-2.932,12.736,12.736,0,0,1-1.918-3.157l1.255-.866a53.926,53.926,0,0,0,4.836,2.74,10.484,10.484,0,0,0,3.026.37c-.233-1-.106-2.332-.771-2.921-1.475-1.307-3.407-2.171-5.027-3.357h0a10.558,10.558,0,0,1-1.748-2.134l.952-1.091c2.439,1.048,4.846,2.163,7.332,3.111a17.483,17.483,0,0,0,3.285.587c-.44-1.061-.544-2.514-1.384-3.11-2.3-1.634-4.938-2.88-7.392-4.347a8.955,8.955,0,0,1-1.53-1.483l.526-.958c2.336.8,4.642,1.685,7.021,2.367h0a28.791,28.791,0,0,0,4.078.58,12.718,12.718,0,0,0-2.434-3.1c-1.762-1.212-3.956-1.9-5.737-3.1a12.257,12.257,0,0,1-2.368-2.925l1.021-1.058,11.6,5.292.748-.921c-2.007-4.793-8.8-5.018-11.343-9.591l6.54,2.633c1.942-5.047-7.845-4.792-4.73-10.065,4.837.74,8.087,4.9,14.051,4.98-3.4-5.934-11.6-5.432-14.332-12.054,5.207,2.009,9.318,3.664,13.506,5.146.7.247,1.731-.258,2.608-.416-.551-.875-.861-2.158-1.695-2.56-4.152-2-8.442-3.767-12.683-5.615l.483-1.1,16.437,4.825q.285-.572.571-1.142c-3.375-5.728-12.444-3.794-16.525-8.569l.722-1.279,19.015,8.141.755-1.361c-4.876-5.287-13.231-5.967-18.705-10.693,7.995-2.218,98.743,21.886,104.986,27.658-2.425,5.342-4.557,10.357-6.963,15.266-3.984,8.13-8.122,16.2-12.24,24.279Zm43.093-5.783c-.337-8.963-5.405-12.526-12.526-13.254-4.606-.471-9.394.254-14.388.455a6.709,6.709,0,0,1,.408-1.36c2.933-6.268,6.126-12.452,8.68-18.835.63-1.575-.14-4.9-1.4-5.5-3.368-1.606-7.367-2.125-11.087-3.156-14.117-3.911-52.905-14.61-57.287-15.544-4.4-.937-8.769-1.989-13.127-3.065-5.848-1.444-11.676-2.955-17.509-4.448-4.129-1.056-8.267-2.124-12.6-3.243a9.933,9.933,0,0,0-3.295,2.391,44.306,44.306,0,0,1-.93,5.538,183.786,183.786,0,0,0-5.439,27.221c-1.421,13.5-3.915,26.963-6.629,40.343-1.455,7.174-3.376,14.12-3.085,21.555.186,4.753,2.513,7.489,6.271,8.914,13.94,5.29,28.14,10.03,42.186,15.1h0a75.021,75.021,0,0,0,23.531,4.327c5.247.148,10.144.18,14.777-3.837,3.864-3.35,4.266-7.913,7.374-11.273.85-.917,2.006-2.233,3.038-2.273,5.72-.221,11.446.021,17.17-.132,11.986-.322,21.09-5.338,27.814-14.614h0a39.149,39.149,0,0,0,8.052-25.311Z" transform="translate(2670.14 359.002)" fill="#fff"/>
    <path id="Pen_Icon" data-name="Pen Icon" d="M1408.009,1038.984c-18.41,12.234-35.182,27.251-52.51,40.789-4.764,3.806-2.7,1.454-8.3-1.262,8.889-13.225,14.364-30.03,21.029-44.457,6.088.887,11.663-1.941,13.122-8.253,1.366-6.559-1.581-13.208-8.573-15.319a1.593,1.593,0,0,0-1.057-.065c-6.282-1.792-11.967-.039-14.39,6.456a12.155,12.155,0,0,0,5.673,15.452c-6.936,14.1-16.147,28.821-20.69,43.79l-1.775-.8c-.71-.319-5.657-1.308-5.733-.727a19.109,19.109,0,0,0-.134-2.314c-1.3-3.452-.874-8.588-1.21-12.222-.647-6.028-1.116-11.975-1.763-18-1.092-10.735-2.193-21.883-3.208-33.2-.109-1.074.2-3.4-.352-4.461,0,0,4.933-4.14,7.53-6.253,5.982-4.489,11.872-9.223,17.853-13.713,2.167-1.691,6.785-3.924,8.233-6.347,1.7-2.925-.248-8.1-.66-11.155-.522-4.127-1.043-8.254-1.827-12.294,9.833,3.386,19.327,7.438,28.906,11.324,8.869,3.568,17.737,7.135,26.437,11.036,3.906,1.752,8.868,3.568,12.7,5.9a74.291,74.291,0,0,0-16.482,11.869,2.047,2.047,0,0,0-.669,1.749c-.083,9.183-.6,18.374-.687,27.557-.1,3.642.524,13.144,1.048,12.969a3.362,3.362,0,0,0-1.125.93m-39.08-23.057c3.2,1.847,4.927,4.463,4.908,7.938.09,4.548-3.125,6.589-7.632,5.592-4.245-1.084-6.6-4.6-5.8-8.749.967-4.484,4.106-5.945,8.528-4.781M1415.4,1030c.05-10.838-.256-21.833-.206-32.671,5.187-4.64,10.907-9.042,17.454-11.638,1.92-.779,2.235-2.686.713-3.983-3.684-3.906-10.152-6.192-15.123-8.421-8.522-3.822-17.306-7.556-26-11.044-11.532-4.762-23.157-9.771-35.019-13.45-1.683-.55-4.127.4-3.824,2.382,1.018,7.014,1.859,13.948,2.878,20.961.109,1.074.4,2.226.42,3.466-1.734,1.271-3.469,2.542-5.026,3.893l-20.281,15.493c-2.86,2.2-8,4.607-8.987,8.263-.814,3.324.874,8.588,1.117,11.975.688,8.094,1.376,16.189,2.326,24.2,1.117,11.975,2.148,24.117,3.443,36.171a2.527,2.527,0,0,0,1.715,2.2c7.525,2.349,14.457,5.869,21.567,9.467a3.24,3.24,0,0,0,2.9-.134c18.285-14.134,36.485-28.1,54.685-42.068,1.735-1.271,4.433-2.725,5.449-4.727,1-2.83-.062-7.609-.2-10.336" transform="translate(2685.351 209.002)" fill="#fff"/>
    <path id="Key_Icon" data-name="Key Icon" d="M1277.013,956.452h0a26.443,26.443,0,0,1,10.414-8.906,13.936,13.936,0,0,0-6.518,3.087,12.787,12.787,0,0,0-3.9,5.82Zm-5.652,33.554a5.292,5.292,0,0,0-2.617,3.126,4.969,4.969,0,0,0,.479,3.958l7.015-4.53Zm27.2,7.638c-.5.381-.678.447-.71.552-1.186,3.857-2.393,7.7-6.358,9.985-.207.12-.231.5-.376.742a9.664,9.664,0,0,1-1.663,2.624,39.713,39.713,0,0,1-4.7,3.163c-2.617,1.6-5.089,3.517-8.659,2.4a13.751,13.751,0,0,0-4.072,0l.052.906a26.541,26.541,0,0,0,11.737-1.138c2.671-.843,4.632-3.51,7.168-4.959,4.26-2.435,4.885-6.737,6.583-10.5h0a24.541,24.541,0,0,0,1-3.785m-22.834-31.062c3.187.981,6.237,1.854,9.235,2.861a15.076,15.076,0,0,1,7.516,5.832,4.423,4.423,0,0,0,1.308,1.224,1.75,1.75,0,0,0,1.377.227,68.973,68.973,0,0,0,7.664-4.945c2.586-2.091,1-16.442-1.231-18.212-1.889-1.5-12.068-3.33-13.235-2.7-4.613,2.505-9.408,5.032-11.525,10.177.408-.077-.366,3.924-1.109,5.532m-7.477,16.873.895.155c-.359-3.789-.718-7.58-1.084-11.43-1.087-.157-2.208-.663-2.993-.369h0a66.566,66.566,0,0,0-7.651,3.431c-3.631,1.911-5.526,3.924-6.022,5.862l5.612-5.189.739.631h0a48.556,48.556,0,0,0-3.987,4.481c-1.123,1.6-3.324,2.8-2.718,5-.653.448-1.529.727-1.744,1.249-1.056,2.561-1.935,5.186-2.878,7.788l.505.155,1.091-1.51c.253,5.9-.4,11.911,6.507,14.953.82-.657,1.157,1.707.237,3.231-5.964,9.884-12.2,19.616-17.428,29.9-3.184,6.264-6.86,12.306-10.259,18.474-2.151,3.9-4.284,7.817-6.267,11.8h0a36.074,36.074,0,0,0-3.054,7.457,8.186,8.186,0,0,0,.4,5.432,8.792,8.792,0,0,0,3.765,4.124,38.566,38.566,0,0,1,3.08-2.615,12.329,12.329,0,0,0,5.533-9.445c.2-2.881,2.012-3.324,4.093-3.97.366-.114.753-.166,1.125-.264,3.112-.82,3.6-2.088,2-4.8a3.417,3.417,0,0,1-.449-2.169,16.691,16.691,0,0,1,1.165-3.042c1.549-.415,3.326-.857,5.075-1.382.457-.138,1.175-.542,1.166-.8a2.67,2.67,0,0,0-.771-1.433c-1.149-1.32-2.355-2.6-3.7-4.067h0a15.722,15.722,0,0,0,2.272-1.151,5.315,5.315,0,0,0,1.317-1.486c6.36-10.871,21.995-35.4,22.446-36.723.569-1.672,1.655-1.669,3.054-.947.582.3,1.3.806,1.828.689h0a97.311,97.311,0,0,0,10.2-2.583c6.811-2.323,10.794-7.873,13.486-13.458,2.887-5.986,1.655-12.645-2.136-18.5h0a67.708,67.708,0,0,0-7.8-7.371,18.832,18.832,0,0,1-2.988-1.965c-1.365-1.229-5.991-2.453-7.027-1.2-1.2,1.44-1.707,6.525-1.864,6.936-1.665,4.337-.793,6.376,3.562,8.143,4.722,1.916,5.942,9.512,1.983,12.653h0a8.967,8.967,0,0,1-2.646,1.29c-1.14.392-2.35.6-3.518.921-4.418,1.228-9.077-1.478-9.041-5.614a21.27,21.27,0,0,1,1.593-7.39,15.734,15.734,0,0,1,3.291-3.865Zm-25.138,83.888a31.761,31.761,0,0,0,.432,3.686,4.574,4.574,0,0,1-.106,2.508,4.819,4.819,0,0,1-1.426,2.118,10.842,10.842,0,0,1-3.826,2.676,9.733,9.733,0,0,0-5.227,5.974,38.339,38.339,0,0,1-3.309,6.129c-.7,1.179-9.473,3.032-10.753,2.363-2.635-1.378-4.51-6.358-4.268-9.307.495-6.023,3.533-11.1,6.167-16.336,3.7-7.344,7.591-14.6,11.389-21.9,3.111-5.977,6.268-11.934,9.287-17.953a68.373,68.373,0,0,1,9.053-14c.605-.708,1.069-1.525,1.64-2.351a8.191,8.191,0,0,1-5.893-4.983c-2.089-4.242-3.712-8.6-1.582-13.44,1.287-2.924,1.821-6.135,2.957-9.128,2.758-7.268,9.125-10.852,16.132-13.719h0a3.794,3.794,0,0,1,1.289-.453c4.39-.01,4.772-3.153,5.333-6.094a24.141,24.141,0,0,1,5.2-11.389,26.141,26.141,0,0,1,10.38-7.6,13.14,13.14,0,0,1,9.224-.127,19.462,19.462,0,0,1,8.162,4.655,34.52,34.52,0,0,1,4.074,3.346,17.082,17.082,0,0,1,3.484,13.815c-1.391,6.94-5.016,12.839-12.126,16.036-1.962.881-1.8,1.8-1.1,3.206a20.86,20.86,0,0,1,2.906,10.865c-.408,5.8-1.28,11.436-5.766,15.852a55.968,55.968,0,0,1-4.786,3.623,21.529,21.529,0,0,1-3.474,2.909,47.608,47.608,0,0,1-6.256,2.1,24.9,24.9,0,0,1-3.678,1.084,8.133,8.133,0,0,1-3.4-.086c-4.663-1.377-3.73-1.267-6.064,2.762-4.132,7.133-8.223,14.291-12.488,21.353-1.844,3.053-4.115,5.872-6.1,8.854a3.168,3.168,0,0,0-.217,1.957c.041.384.45.745.727,1.093,3.568,4.478,1.66,7.084-3.07,9.042a27.917,27.917,0,0,1-2.915.852Z" transform="translate(2695.994 359.002)" fill="#fff"/>
    <path id="Pie_Graph_Icon" data-name="Pie Graph Icon" d="M1120.665,1037.015c17.7,8.286,20.477,30.585,39.065,37.965.33-1.4,1.514-1.886,2.724-2.5-11.882-18.817-28.726-32.935-44.528-48.118.546,4.54,1.8,8.45,2.739,12.647Zm2.653,36.745c-.333,5.445,3.965,6.434,6.75,8.841-1.083-4.006-3.9-6.376-6.75-8.841m0-6.364c-.562,7.324,8.191,12.581,10.846,12.674-4.417-3.52-5.568-10-10.846-12.674m0-8.854c1.973,10.023,9.546,21.528,17.535,21.528-6.475-6.54-11.164-14.812-17.535-21.528m-1.3-7.6c5.509,12.119,13.442,22.032,24.226,29.124-8.3-9.5-15.37-20.118-24.226-29.124m-1.353-12.644c5.1,18.023,15.458,31.029,30.988,39.28-7.455-10.817-17.81-29.719-30.988-39.28m-68.813,7.527c12.891,21.774,30.109,39.387,68.813,36.775-4.036-19.13.289-41.561-6.765-59.451-19.8,8.312-46.562,10.3-62.047,22.677Zm130.846-2.448c-3.564-9.506-16.15-13.12-24.282-19.01-8.423-6.036-14.939-15.611-24.254-16.449,13.621,14.215,32.442,23.542,48.536,35.459m-62.033-22.8c12.977,18.632,31.8,31.764,45.828,49.381-.637-3.983,3.634-3.346,4.079-6.255-17.332-13.743-31.912-30.111-49.907-43.126m43.126,27.836c-14.4-11.018-28.6-22.311-41.773-32.872v3.769c17.219,12.914,34.551,32.518,51.222,41.753,3.577-6.487-5.766-9.831-9.448-12.649Zm4.054-5.033c-14-10.332-27.814-21.8-41.79-30.383,10.127,15.448,33.856,28.931,51.219,41.755,3.578-6.442-5.881-8.814-9.429-11.372m-37.776-32.953c3.155,8.011,14.316,12.791,22.9,19.033,8.794,6.375,18.052,14.1,27.006,18.953-12.99-16.1-32.126-26.33-49.9-37.986Zm52.63-17.738c-3.274-1.624-8.536-7.879-12.127-5.049,3.78,1.149,8.407,8.013,12.127,5.049m-35.082,8.9c-3.651.81-6.33,2.467-8.076,5.117A285.923,285.923,0,0,0,1184,1037.016c-10.267-12.7-31.03-22.327-39.065-32.914,6.131,4.153,14.116,8.76,21.56,13.876,6.747,4.766,14.159,13.607,18.876,12.7-11.871-10.289-26.52-18.171-37.751-29.1Zm2.71-2.507c-.072,1.637-1.747,1.681-1.371,3.78,14.566,6.582,24.11,17.807,37.781,25.3-8.766-12.919-22.984-20.646-36.41-29.084Zm20.245,8.844c-5.579-3.928-12.5-12.267-17.606-8.842,13.267,5.337,24.137,19.487,35.128,22.706-2.915-5.689-11.089-9.384-17.522-13.865Zm-13.541-11.4c10.227,5.118,20.855,16.747,31.064,17.747-10.269-4.605-22.3-20.077-31.064-17.747M1161.1,994c8.479,5.6,16.28,11.735,25.639,16.424-2.856-9.669-18.773-18.8-25.639-16.424m5.395-5.091c3.084,7.27,12.487,8.595,18.875,12.671-3.361-6.985-10.312-10.6-18.875-12.671M1050.539,1042.1c18.212-10.745,45.048-13.373,61.994-25.276-4.272-17.518-18.748-36.351-29.649-51.935-24.83,12.521-39.626,42.121-32.345,77.21Zm67.386-26.562c17.85-12.4,37.893-22.677,56.67-34.2-7.227-14.376-21.529-22.03-39.134-26.552-4.011,21.974-16.988,35.513-17.535,60.751Zm-31.033-54.479c8.363,18.313,19.552,34.025,29.707,50.662-1.3-25.279,12.487-36.423,16.177-56.934-16.784-4.318-34.346,1.327-45.883,6.272Zm70.138,119.006c-57.043,17.387-107.7-4.724-111.926-49.39-3.029-32.467,22.294-74.793,60.707-79.732,42.4-5.537,79.8,19.943,84.962,51.908,4.773,29.83-11.349,64.194-33.743,77.214" transform="translate(2708.656 209.002)" fill="#fff"/>
    <path id="Dollar_Icon" data-name="Dollar Icon" d="M1023.781,1020.915a27.805,27.805,0,0,0-9.958-4.81l.692.171h0a152.233,152.233,0,0,0-23.971-4.109l.265.033a15.874,15.874,0,0,1-3.7-1.046c-3.066-1.2-4.791-2.7-5.123-4.415q-.108-10.325,12.829-15.4a14.677,14.677,0,0,1,10.05.109c.088.011.252.114.34.125a10.346,10.346,0,0,1,6.477,5.278,4.459,4.459,0,0,0,2.575,2.077,4.915,4.915,0,0,0,3.42-.162,4.218,4.218,0,0,0,2.257-2.322,3.774,3.774,0,0,0-.187-3.11,18.728,18.728,0,0,0-11.768-9.5l.34.125h0a23.27,23.27,0,0,0-13.26-1.114c-.28-1.378-.636-3.09-1.056-5.156-.155-.762-.31-1.525-.389-2.2a10.205,10.205,0,0,1-.177-2.416,6.383,6.383,0,0,0,.185-.636,3.579,3.579,0,0,0-.39-3.022,4.174,4.174,0,0,0-2.653-1.819,4.814,4.814,0,0,0-3.364.4,4.187,4.187,0,0,0-2.089,2.458,19.711,19.711,0,0,0-.415,2.175c-.025.162.027.417,0,.579l.012-.081c.006,1.156.1,2.323.207,3.409a16.8,16.8,0,0,0,.4,2.692c.639,3.037,1.083,5.278,1.368,6.772a23.755,23.755,0,0,0-10.193,8.813,21.076,21.076,0,0,0-3.278,12.509,3.4,3.4,0,0,1,.028.416c.717,4.8,4.207,8.456,10.393,10.891h0a28.224,28.224,0,0,0,5.415,1.594l.264.033a151.984,151.984,0,0,1,21.717,3.577c.264.033.428.136.692.17a17.58,17.58,0,0,1,6.5,3.3c3.435,2.469,3.84,6.484,1.241,11.961a17.121,17.121,0,0,1-13.147,6.419l.088.011a24.794,24.794,0,0,1-9.283-1.212,23.382,23.382,0,0,1-7.983-4.523,4.675,4.675,0,0,0-3.207-1.014,4.577,4.577,0,0,0-3.045,1.373,3.87,3.87,0,0,0-1.1,2.951,3.96,3.96,0,0,0,1.5,2.8,33.272,33.272,0,0,0,20.533,7.814c.119.752.427,2.114.916,4.146l.012-.081c.206,1.016.5,2.622.982,4.829.1.508.41,1.455.744,2.818h0a4.133,4.133,0,0,0,2.017,2.529,4.78,4.78,0,0,0,3.37.474,4.441,4.441,0,0,0,2.745-1.861,3.813,3.813,0,0,0,.507-3.1,22.8,22.8,0,0,1-.641-2.309c-.478-2.207-.851-3.9-1.058-4.921l.012-.081c-.375-1.629-.672-2.71-.8-3.316a23.663,23.663,0,0,0,14.5-9.64c.112-.15.237-.383.349-.533,4.65-9.48,3.416-16.816-3.715-21.929Z" transform="translate(2719.461 359.002)" fill="#fff"/>
    <path id="Crumpled_Paper_Icon" data-name="Crumpled Paper Icon" d="M936.359,1021.907l-5.4-9.09-3.122-1.227-8.15,2-5.28-7.728,8.552-3.1L935.148,1009l6.635,11.96ZM930.945,1037l-1.93-7.152,7.174-.958Zm-43.014,21.982-.258-.353-2.148-1.114-18.487-.818,16.779-20.974.515-1.222,1.648-14.339-1.19-2.345-1.233-.764,25.495-9.246.8.872,6.251,9.153,3.039,1.094,8.022-1.969,4.434,7.462-6.378.853-2.267,3.088,3.946,14.626Zm-33.331-36.22,3.349-.19.9-1.04,32.839-32.6,13.64,14.825-28.614,10.376-.529,4.416,4.169,2.588-1.4,12.167-14.266,17.83Zm-8.195,3.848-.132-.146,3.057-2.291,7.373,20.74Zm-3.922-21.182,41.512-28.538.2.021,7.7,6.562-2.131-.043-34.141,33.894Zm77.74-7.074-9.515,3.452-9.783-10.634,4.268,3.636,2.4.627,12.071-2.161Zm-10.556-19.917,10.3,9.661-12.064,2.16-16.1-13.718Zm38.664,43.232-8.667-15.624-1.109-1.056-12.807-6.555-.7-6.279,2.052-2.282v-1.255l-.78-1.757-13.405-12.573-1.649-.741-31.25-3.321-.433,3.414-42.942,29.518-.282,3.8,12.353,11.185-8.407,6.305.049,3.922,1.445,1.034,17.282,30.72.418.247,29.036,5.6,42.611-5.555-21.823-4.7,21.39-8.779.137.074.116-.178.276-.114.942-1.77,11.653-18.02-.781-1.068,3.339-.583Z" transform="translate(2729.322 209.002)" fill="#fff"/>
    <path id="Phone_Icon" data-name="Phone Icon" d="M803.1,986.545a1.552,1.552,0,0,0-.68-2.361,1.921,1.921,0,0,0-1.565-.034c-12.7,5.446-20.443,16.227-26.354,26.053-6.711,11.164-11.527,23.107-16.684,36.435a4.022,4.022,0,0,0-.207,2.4v0a4.784,4.784,0,0,0,4.536,3.315,4.66,4.66,0,0,0,4.814-2.936s2.19-5.663,2.946-7.592a5.085,5.085,0,0,1,1.646,2.56,5.366,5.366,0,0,1-.052,2.476c-.841,3.627-10.193,21.5-13.048,20.678-.52.139-2.758-.86-4.761-2.313-6.013-4.357-8.208-8.98-8.7-15.114-.6-7.419,8.624-26.469,11.769-32.828,9.8-19.829,21.955-36.091,35.134-47.024,5.526-4.588,10.738-6.039,15.929-4.443,2.925.9,16.271,6.774,16.447,10.311,0,.061.025.118.032.179.11,1.056-14.822,21.233-15.937,22.327-1.9,1.859-9.194-4.2-10.849-5.165.626-.779,4.359-5.395,5.585-6.928Zm-69,30.528c.53,1.382-1.345,2.01-2.1,1.721a25.659,25.659,0,0,1-5.693-1.82c1.793-1.654,6.718-3.3,7.793.1m-5.753-17.428c2.178,1.538.206,3.691-2.112,3.065A11.011,11.011,0,0,1,723,1000.9c-.665-.471-1.325-.969-1.972-1.483.147-.058.292-.117.449-.167,1.927-.612,5.209-.785,6.874.394m45.414,61.245c2.583-4.662,5.121-9.648,5.355-14.789a10.254,10.254,0,0,0-.255-2.848c-.832-3.484-3.515-5.787-6.375-7.88a175.921,175.921,0,0,1,9.832-20.674,139.411,139.411,0,0,1,11.531-16.617c3.229,2.846,6.93,5.6,11.842,5.708,3.99.086,5.8-1.629,8.092-3.8l.078-.075c5.419-5.133,12.181-11.983,16.405-19.457a7.326,7.326,0,0,0,.921-5.415c-1.19-4.988-7.776-8.349-12.628-10.442-7.134-3.078-14.189-5.637-22.064-3.172C785.734,964.8,777.22,974.264,771,981.172a152.777,152.777,0,0,0-21.8,31.02c-4.491,8.559-9.51,18.523-12.461,28.757-6.368-3.657-11.692-9.749-12.606-16.669a10.029,10.029,0,0,1,.137-3.612,21.421,21.421,0,0,0,2.636,1.146c4.279,1.528,12.73,2.524,12.127-3.9-.534-5.688-7.941-8.271-12.981-5.858a11.121,11.121,0,0,0-3.319,2.389,14.782,14.782,0,0,1-4.658-7.921,9.564,9.564,0,0,1-.109-3.337,26.412,26.412,0,0,0,3.883,2.674c4.62,2.59,13.3,2.038,12.83-4.667-.458-6.568-8.823-7.495-14.243-6.258a9.987,9.987,0,0,0-2.8,1.093c-3.078-4.411-1.782-10.93,5.079-10.252a1.218,1.218,0,0,0,.771-2.243c-4.951-3.075-10.912.909-11.943,5.758-.779,3.653.533,7.172,2.813,10.174a13.018,13.018,0,0,0-.231,9.979,19.761,19.761,0,0,0,6.335,8.751c-1.38,3.876-.753,8.534.877,12.333a31.136,31.136,0,0,0,14.324,14.97c-1.666,14.367,6.554,23.027,13.973,27.535,5.9,3.591,11.461,3.609,15.252.058,3.893-3.644,6.785-8.438,8.869-12.207" transform="translate(2740.355 359.002)" fill="#fff"/>
    <path id="Letter_Icon" data-name="Letter Icon" d="M667.8,1027.419c-5.826-4.91-13.1-9.006-19.224-13.324A181.658,181.658,0,0,0,631,1003.159c6.773-9.314,12.849-19.047,18.714-28.873,1.038,3.086,1.991,6.855,2.446,8.011,3.241,8.233,6.27,16.375,9.511,24.609,1.934,4.912,7.946,14.34,6.129,20.513Zm-15.879,7.307-13.3,3.984c-16.576,5.087-33.024,10.949-49.089,17.336-7.485,3.01-14.856,6.308-22.5,9.371,6.388-13.438,9.352-28.83,13.993-42.662,8.355,3.241,19,7.35,26.2,5.418,4.8-1.289,8.138-5.847,11.191-9.328,3.409-3.928,6.6-7.948,9.643-11.915a189.374,189.374,0,0,1,20.006,13.062c5.214,3.807,10.557,8.389,16.738,11.054-3.1,2.024-9.7,2.775-12.884,3.682Zm-120.046-23.567c14.788.259,28.967,4.812,42.833,9.47a15.365,15.365,0,0,0,2.017.631c-5.351,14.724-11.426,29.856-15.712,45.038a24.129,24.129,0,0,1-2.146-3.2,369.667,369.667,0,0,1-26.993-51.935Zm102.34-36.237c1.562-.526,7.471-3.5,10.966-4.508-6.39,9.839-12.353,19.862-19.169,29.516-3.536,4.953-7.285,9.813-11.4,14.634-4.984,5.767-8.293,9.5-16.561,7.372-18.5-4.735-35.931-12.61-54.74-15.443,29.914-11.211,60.666-20.741,90.907-31.571Zm25.587,9.711c-1.99-5.056-3.514-15.667-8.146-19.344-3.126-2.547-6.336-.813-9.717.488-37.413,13.735-75.893,25.211-113.022,39.668a2.835,2.835,0,0,0-2.016,2.969,1.516,1.516,0,0,0-.056,1.655,378.623,378.623,0,0,0,25.573,51.924c1.777,3.165,4.165,9.231,8.4,10.1,4.02.774,9.659-2.432,13.139-3.93,8.465-3.667,17.044-7.044,25.623-10.422,16.121-6.243,32.683-11.816,49.316-16.758,7.927-2.34,27.3-3.462,26.617-14.191-.4-6.41-4.493-13.211-6.825-19.134-3.013-7.656-6.027-15.312-8.885-23.021" transform="translate(2756.384 209.002)" fill="#fff"/>
    <path id="Paper_Clip_Icon" data-name="Paper Clip Icon" d="M494.854,1000.916c-.564-2.276-1.026-4.25-1.358-5.762l-.141-.74c-1.9-8.846-5.115-23.664-14.416-29.213a15.377,15.377,0,0,0-11.635-1.635c-4.941,1.167-7.38,6.586-7.46,16.638-.2,17.422,8.421,58.1,18.091,60.582,4.233,1.035,6.755-.3,8.154-1.612,5.476-5.192,1.767-18.964-2.523-32.6-.668-2.14-1.234-3.977-1.375-4.715a3.214,3.214,0,0,0-3.712-2.406,3.015,3.015,0,0,0-2.6,3.436c.2,1.052.76,2.847,1.536,5.332,4.9,15.705,6.271,24.72,4.108,26.8-.369.343-1.453.118-1.622.144-4.672-2.892-16.413-43.344-13.089-61.2.666-3.563,1.738-4.539,2.068-4.634a8.608,8.608,0,0,1,6.633.886c7.038,4.152,10.016,17.963,11.6,25.375l.141.74c.339,1.55.8,3.522,1.38,5.879,3.579,14.917,11.92,49.821,3.06,61.389a8.463,8.463,0,0,1-6.238,3.468c-11.269,1.2-15.473-7.435-18.866-22.745-2.142-9.649-3.866-19.609-5.481-29.225-1.016-6.019-2.067-11.991-3.2-17.911a3.215,3.215,0,0,0-3.712-2.407,3.06,3.06,0,0,0-2.691,3.41c1.12,5.882,2.122,11.822,3.173,17.8,1.671,9.689,3.368,19.732,5.574,29.494,2.311,10.3,6.58,29.529,25.927,27.456.336-.055.68-.071.975-.12a14.928,14.928,0,0,0,9.748-5.767c10.489-13.72,2.3-47.807-2.054-66.131Z" transform="translate(2765.453 359.002)" fill="#fff"/>
    <g id="Badge_Icon" data-name="Badge Icon" transform="translate(3086.135 1174.194)">
      <path id="Path_1506" data-name="Path 1506" d="M313.876,985.138a3.34,3.34,0,0,1-1.41-5.162c.254-.328.506-.679.777-1.031,1.879-2.536,4.718-6.364,9.5-6.306h0a33.37,33.37,0,0,1,9.841,2.2c1.1.363,2.178.726,3.224,1.018,6.293,1.761,12.586,3.762,18.672,5.7q3.008.945,6.006,1.9a3.339,3.339,0,1,1-2,6.373l-6.033-1.9c-6.035-1.918-12.276-3.9-18.458-5.632-1.14-.32-2.325-.713-3.528-1.115h0a28.272,28.272,0,0,0-7.827-1.849c-1.265-.02-2.475,1.478-4.048,3.594-.3.4-.587.793-.876,1.16a3.34,3.34,0,0,1-3.849,1.049" transform="translate(-291.615 -969.61)" fill="#fff"/>
      <path id="Path_1507" data-name="Path 1507" d="M305,1047.879c-12.636-4.977-14.2-12.246-13.1-17.708a93.789,93.789,0,0,1,7.373-20.139c1.031-2.26,2.056-4.51,3-6.758,1.736-4.13,3.482-8.125,5.232-12.128,1.506-3.441,3.013-6.889,4.515-10.425a3.341,3.341,0,1,1,6.15,2.612c-1.512,3.565-3.03,7.036-4.544,10.5-1.737,3.975-3.47,7.942-5.192,12.04-.972,2.309-2.024,4.62-3.085,6.942h0a88.78,88.78,0,0,0-6.909,18.675c-.359,1.773-1.463,7.176,12.552,11.405,2.16.652,4.334,1.178,6.635,1.738,1.981.481,3.966.964,5.928,1.521,5.559,1.585,10.876,3.535,14.886,5.062,3.215,1.222,6.418,2.476,9.62,3.733,5.8,2.284,11.815,4.632,17.783,6.722,4.528,1.585,9.064,3.154,13.614,4.669,3.983,1.33,8.493,2.831,12.406,2.286,2.31-.322,4.22-2.087,6.59-6.092h0a65.792,65.792,0,0,0,5.3-12.545c2.253-6.694,4.358-14.1,6.621-23.321l.184-.746a51.022,51.022,0,0,0,2.111-13.791c-.107-2.636-1.826-3.724-6.014-5.751-.62-.3-1.246-.6-1.859-.919a114.063,114.063,0,0,0-20.152-7.249c-2.924-.85-5.949-1.731-8.886-2.692h0a3.34,3.34,0,1,1,2.075-6.349c2.833.929,5.805,1.793,8.677,2.628a118.966,118.966,0,0,1,21.335,7.72c.568.29,1.144.568,1.719.847,4.009,1.938,9.5,4.595,9.779,11.49h0a55.977,55.977,0,0,1-2.3,15.663l-.182.739c-2.309,9.4-4.463,16.987-6.78,23.864h0a71.532,71.532,0,0,1-5.883,13.817c-2.318,3.911-5.708,8.5-11.414,9.3-5.465.765-11-1.079-15.441-2.562-4.582-1.528-9.152-3.1-13.7-4.7-6.079-2.129-12.146-4.508-18.013-6.808-3.177-1.252-6.361-2.494-9.548-3.7-3.89-1.479-9.031-3.37-14.348-4.884-1.878-.536-3.773-1.008-5.673-1.457-2.287-.554-4.652-1.129-6.987-1.831-1.475-.451-2.831-.921-4.08-1.413Z" transform="translate(-291.615 -969.61)" fill="#fff"/>
      <path id="Path_1508" data-name="Path 1508" d="M362.563,1001.752a10.523,10.523,0,0,1-4.781-3.729,12.129,12.129,0,0,1-1.822-9.236,61.7,61.7,0,0,1,5.364-13.821c.574-1.2,1.121-2.335,1.6-3.377a3.279,3.279,0,0,1,4.421-1.661A3.339,3.339,0,0,1,369,974.347c-.495,1.086-1.061,2.269-1.658,3.51a57.58,57.58,0,0,0-4.823,12.178,5.438,5.438,0,0,0,.715,4.136,4.067,4.067,0,0,0,2.832,1.65c1.8.28,3.974-4.522,4.79-6.333l.106-.233h0a41.8,41.8,0,0,0,2.365-8.051c.366-1.628.736-3.252,1.187-4.836h0a3.34,3.34,0,0,1,6.418,1.829c-.419,1.465-.755,2.966-1.093,4.47h0a47.485,47.485,0,0,1-2.8,9.338l-.1.227c-1.649,3.658-5.074,11.247-11.908,10.184h0a11.714,11.714,0,0,1-2.469-.663" transform="translate(-291.615 -969.61)" fill="#fff"/>
      <path id="Path_1509" data-name="Path 1509" d="M364.733,976.074a3.34,3.34,0,0,1,1.89-6.379,38.765,38.765,0,0,1,12.813,4.719,3.34,3.34,0,0,1-3.417,5.74,31.942,31.942,0,0,0-10.722-3.912,3.544,3.544,0,0,1-.564-.168" transform="translate(-291.615 -969.61)" fill="#fff"/>
      <path id="Path_1510" data-name="Path 1510" d="M320.88,1004.3a3.34,3.34,0,0,1,1.676-6.418,159.287,159.287,0,0,1,29.965,8.16l3.838,1.313a3.289,3.289,0,0,1,2.087,4.239,3.343,3.343,0,0,1-4.235,2.087l-3.86-1.323a154.289,154.289,0,0,0-28.693-7.857,3.269,3.269,0,0,1-.779-.2Z" transform="translate(-291.615 -969.61)" fill="#fff"/>
      <path id="Path_1511" data-name="Path 1511" d="M317.572,1012.7a3.339,3.339,0,0,1,2.079-6.335c14.439,3.8,28.746,8.859,42.584,13.747l2.121.749a3.378,3.378,0,0,1,2.036,4.26,3.338,3.338,0,0,1-4.264,2.036l-2.124-.75c-13.708-4.844-27.882-9.853-42.059-13.586h0a3.026,3.026,0,0,1-.374-.122" transform="translate(-291.615 -969.61)" fill="#fff"/>
      <path id="Path_1512" data-name="Path 1512" d="M313.935,1023.278a3.34,3.34,0,0,1,2.2-6.3l8.285,2.507c8.518,2.573,17.32,5.234,25.955,7.983a3.34,3.34,0,1,1-2.029,6.364c-8.585-2.736-17.367-5.388-25.859-7.953l-8.3-2.512c-.091-.028-.17-.055-.255-.088Z" transform="translate(-291.615 -969.61)" fill="#fff"/>
      <path id="Path_1513" data-name="Path 1513" d="M311.971,1033.384a3.339,3.339,0,0,1,2.007-6.352c7.539,1.807,14.939,4.226,22.1,6.57,5.683,1.86,11.559,3.782,17.4,5.358a3.339,3.339,0,0,1-1.74,6.445c-6.012-1.619-11.974-3.571-17.737-5.455-7.037-2.294-14.3-4.677-21.578-6.426h0a3.308,3.308,0,0,1-.45-.141Z" transform="translate(-291.615 -969.61)" fill="#fff"/>
      <path id="Path_1514" data-name="Path 1514" d="M394.889,1010.681a3.9,3.9,0,0,0-3.458,1.94,3.444,3.444,0,0,0-.377,2.675,2.869,2.869,0,0,0,1.586,1.659c2.7,1.3,7.423.594,8.852-2.042h0a1.473,1.473,0,0,0,.2-.5,10.994,10.994,0,0,0-4.688-1.952,3.279,3.279,0,0,1-2.114-1.774Zm-4.378,12.633c-.254-.1-.5-.208-.748-.324a9.523,9.523,0,0,1-5.055-5.6,10.046,10.046,0,0,1,.828-7.91c2.623-4.916,8.32-6.708,14.863-4.674a3.386,3.386,0,0,1,2.285,2.538,9.36,9.36,0,0,1,5.179,4.6,6.871,6.871,0,0,1-.508,6.149c-3.113,5.787-11.23,7.436-16.844,5.224" transform="translate(-291.615 -969.61)" fill="#fff"/>
      <path id="Path_1515" data-name="Path 1515" d="M365.343,1053.62a3.34,3.34,0,0,1-1.957-4.144c5.975-18.325,14.566-26.287,25.542-23.662a13.094,13.094,0,0,1,9.6,7.283c3.5,7.857-1.508,18.924-6.262,27.683h0a3.341,3.341,0,1,1-5.872-3.187c2.142-3.942,8.647-15.926,6.039-21.789a6.725,6.725,0,0,0-5.052-3.5c-7.094-1.7-12.863,4.595-17.627,19.238h0a3.338,3.338,0,0,1-4.209,2.139,1,1,0,0,1-.2-.058Z" transform="translate(-291.615 -969.61)" fill="#fff"/>
    </g>
    <g id="Shield_Icon" data-name="Shield Icon" transform="translate(2969.199 1315.959)">
      <path id="Path_1492" data-name="Path 1492" d="M261.122,980.671c.871,1.387.129,4.739.206,6.363.422,8.9,1.615,17.757,2.2,26.652a115.256,115.256,0,0,1,.273,11.9c-.219,5.674-2.542,9.8-6.447,14.035-6.118,6.627-13.209,12.244-20.428,17.781-3.579,2.741-7.225,5.4-10.912,8q-2.64,1.867-5.288,3.726c-2.948,2.069-4.681,2.21-8,.645a84.149,84.149,0,0,1-19.9-13.369c-6.037-5.356-13.263-11.582-17.056-18.578-4.871-8.984-2.982-20.014-2.748-29.72q.369-15.445.739-30.888,10.95-2.936,21.908-5.858c6.154-1.647,12.521-3.142,18.546-5.281q13.472,4.78,27.291,8.685c4.3,1.209,8.6,2.44,12.867,3.75,1.242.383,6.146,1.2,6.748,2.151ZM216.773,957.3c-3.576-1.371-5.976,1.554-5.866,4.465-5.743.856-11.461,2.213-17.079,3.381q-12.684,2.626-25.371,5.258a4.063,4.063,0,0,0-3.117,3.819q-.384,17.375-.757,34.757c-.218,10.012-1.582,20.5,2.616,29.99,3.764,8.517,11.712,15.617,18.7,21.945a92.884,92.884,0,0,0,23.356,15.8c3.775,1.732,7.682,3.683,11.786,1.648,4.693-2.329,9.023-6.281,13.227-9.318,8.741-6.308,17.037-13.027,24.017-21.071,6.555-7.553,9.814-14.873,10.346-24.573.581-10.593-.481-21.176-.769-31.76-.068-2.53-.1-5.069-.04-7.605.049-2.247.587-4.942-.775-7-2.429-3.662-9.771-5.106-13.833-6.661-12.044-4.6-24.4-8.448-36.438-13.072Z" transform="translate(-164.199 -956.957)" fill="#fff"/>
      <path id="Path_1493" data-name="Path 1493" d="M237.247,1001.682c-5.084,5.906-9.3,12.649-14.129,18.771q-5.886,7.445-12.008,14.686a118.083,118.083,0,0,0-9.583-14.8c-1.379-1.721-4.578.135-3.764,2.185,2.748,6.934,6.638,13.511,9.845,20.254a3.458,3.458,0,0,0,5.394.7c5.5-5.986,10.812-12.134,15.836-18.529,4.779-6.078,10.119-12.273,13.887-19.038,1.856-3.334-2.809-7.328-5.478-4.226" transform="translate(-164.199 -961.374)" fill="#fff"/>
    </g>
    <path id="Page_Icon" data-name="Page Icon" d="M98.228,1082.771c-4.025.452-11.85-3.542-15.618-4.676l-15.122-4.368c-20.029-5.605-40.918-11.611-61.69-13.918,5.38-17.542,12.165-45.411,17.363-63,2.046-7.19,3.611-18.171,8.335-24.5,10.051,7.125,23.423,14.9,34.958,18.181,7.948,2.19,9.023-4.328,10.679-10.148l5.065-17.8c.584-2.054,1.825-5.044,2.422-7.829,9.4,2.556,18.708,5.456,27.977,7.794,4.181,1.056,10.387,1.154,14.142,3.019,7.51,3.731,2.323,13.063.764,18.542-5.565,20.247-13.445,50.591-19.01,70.838-1.328,5.354-3.767,26.94-10.265,27.869M55.548,959.664c5.057-2.027,10.247-3.836,15.437-5.646,1.516-.535,3.82-1.788,5.407-1.2,2.314.768,1.162,1.394.383,4.133L73.414,968.76c-1.168,4.109-1.672,9.3-3.75,13.183-1.652,3.069-.087,2.363-3.771,1.616-2.048-.333-4.3-2-6.2-2.849-7.873-3.822-15.322-8.455-23.1-12.619,5.592-3.91,12.613-5.991,18.956-8.427m55.261,113.8c1.669-6.551,3.52-13.057,5.37-19.562l12.763-48.2c1.851-6.506,3.653-12.84,5.322-19.391,1.461-5.136,3.892-10.945,4.214-16.185.339-8.722-7.042-9.484-14.64-10.851-13.694-2.538-26.8-7.132-40.071-10.481-3.073-4.262-10.058-1.621-14.327-.313-8.173,2.708-15.9,5.9-23.805,9.037-5.287,2.152-11.217,4.509-15.622,8.351a3.127,3.127,0,0,0-1.578,1.437,19.491,19.491,0,0,0-3.558,4.973c-5.311,11.137-7.425,24.732-10.785,36.545-3.994,14.038-9.8,38.483-13.981,52.475a2.183,2.183,0,0,0,.373,2.113,2.787,2.787,0,0,0,2.24,2.4c27.263,6.88,54.65,11.957,81.573,20.037,6.446,1.994,16.306,7.051,21.756.9,3.035-3.821,3.587-9.186,4.756-13.295" transform="translate(2805 209.002)" fill="#fff"/>
  </g>
</svg>
